<svg width="600" height="600" style="overflow: visible;"><g transform="translate(300,300)"><path class="link source-A:GLU:90 target-A:SER:3" d="M-99.65047755357097,223.81863712243728L-86.70097853031604,187.42780063121003C-73.75147950706109,151.03696413998279,-47.85248146055122,78.2552911575283,-63.421174307230544,15.812674727991073C-78.98986715390987,-46.629941701546166,-136.0262508937784,-98.73350157816617,-164.54444276371265,-124.78528151647618L-193.06263463364695,-150.83706145478618" style="stroke-width: 2; fill: none; stroke: rgb(197, 200, 202);"></path><path class="link source-A:GLU:90 target-A:LYS:38" d="M-99.65047755357097,223.81863712243728L-87.33341890196078,188.99314548063765C-75.01636025035059,154.16765383883808,-50.38224294713022,84.51667055523886,-74.38347408240622,42.945318784736784C-98.38470521768221,1.3739670142347027,-171.02128479145458,-12.117753243170252,-207.33957457834074,-18.86361337187273L-243.65786436522694,-25.60947350057521" style="stroke-width: 2; fill: none; stroke: rgb(197, 200, 202);"></path><path class="link source-A:ARG:44 target-A:GLU:48" d="M17.090336067310737,-244.40319231365692L14.02935830191013,-203.69167087144706C10.968380536509525,-162.98014942923723,4.846425005708312,-81.55710654481757,-3.6848659613794887,-0.3872950189273112C-12.216156928467289,80.78251650696296,-23.15678333184168,161.69909667432384,-28.627096533528874,202.15738675800426L-34.09740973521607,242.61567684168472" style="stroke-width: 2; fill: none; stroke: rgb(197, 200, 202);"></path><path class="link source-A:ARG:57 target-A:THR:35" d="M83.79493511478886,-230.22469209254754L69.82911259565738,-197.60952737943663C55.8632900765259,-164.99436266632574,27.931645038262943,-99.76403324010393,-3.197442310920451e-14,-99.76403324010393C-27.931645038263007,-99.76403324010391,-55.863290076526,-164.9943626663257,-69.8291125956575,-197.6095273794366L-83.794935114789,-230.2246920925475" style="stroke-width: 2; fill: none; stroke: rgb(197, 200, 202);"></path><path class="link source-A:ARG:57 target-A:FOL:201" d="M83.79493511478886,-230.22469209254754L72.49942703130642,-192.13457143380074C61.203918947824,-154.04445077505392,38.61290278085915,-77.86420945756034,46.285450217916875,-4.864796849081685C53.9579976549746,68.13461575939697,91.8941086960549,137.95319965886068,110.86216421659503,172.8624916085925L129.8302197371352,207.7717835583244" style="stroke-width: 2; fill: none; stroke: rgb(197, 200, 202);"></path><path class="link source-A:ARG:71 target-A:ASP:69" d="M144.00738681165592,-198.20916362186213L124.34517557747544,-165.93938929661255C104.68296434329497,-133.66961497136296,65.35854187493403,-69.13006632086383,75.20967828565558,-13.261495492164656C85.06081469637714,42.60707533653452,144.08750998618117,89.80466834343373,173.60085763108322,113.40346484688334L203.11420527598523,137.00226135033296" style="stroke-width: 2; fill: none; stroke: rgb(197, 200, 202);"></path><path class="link source-A:LYS:109 target-A:TYR:111" d="M-241.27789948799096,42.543803528397916L-204.29451918443374,32.92992724718252C-167.3111388808765,23.316050965967133,-93.34437827376208,4.088298403536353,-55.97978437031537,-43.736200903472785C-18.615190466868675,-91.56070021048191,-17.85276326708972,-167.9819462620694,-17.471549667200243,-206.19256928786314L-17.090336067310766,-244.40319231365692" style="stroke-width: 2; fill: none; stroke: rgb(197, 200, 202);"></path><path class="link source-A:GLU:90 target-A:TYR:111" d="M-99.65047755357097,223.81863712243728L-84.50132479823682,186.25822399547414C-69.3521720429027,148.69781086851103,-39.05386653223441,73.57698461458477,-25.293842951191042,-4.459986958097588C-11.533819370147675,-82.49695853077995,-14.31207771872922,-163.45007542221842,-15.701206893019993,-203.92663386793765L-17.090336067310766,-244.40319231365692" style="stroke-width: 2; fill: none; stroke: rgb(197, 200, 202);"></path><path class="link source-A:ASP:27 target-A:THR:113" d="M233.0088464923126,75.70916362186212L194.95925806521706,61.83435609162125C156.90966963812153,47.95954856138039,80.81049278393044,20.209933500898668,13.610468241469288,-21.781302283239928C-53.58955630099187,-63.77253806737852,-111.89042853172312,-120.005394575174,-141.04086464708874,-148.12182282907173L-170.19130076245438,-176.23825108296947" style="stroke-width: 2; fill: none; stroke: rgb(197, 200, 202);"></path><path class="link source-A:GLU:154 target-A:HIS:114" d="M34.09740973521598,242.61567684168475L26.872188679705157,207.5584377689769C19.646967624194332,172.50119869626903,5.196525513172684,102.3867205508533,-26.733536838230336,93.23092250459744C-58.66359918963336,84.07512445834159,-108.07328178141775,135.87800651124562,-132.77812307730994,161.7794475376976L-157.48296437320215,187.68088856414963" style="stroke-width: 2; fill: none; stroke: rgb(197, 200, 202);"></path><path class="link source-A:ASP:122 target-A:THR:123" d="M237.72245293761912,-59.27086442191856L199.27348244125713,-52.610887368812726C160.82451194489516,-45.95091031570689,83.92657095217119,-32.630956209495224,20.30493099395869,-55.78733940948581C-43.31670896425382,-78.9437226094764,-93.66204788795488,-138.57644311566924,-118.8347173498054,-168.39280336876567L-144.00738681165595,-198.2091636218621" style="stroke-width: 2; fill: none; stroke: rgb(197, 200, 202);"></path><path class="link source-A:GLU:154 target-A:SER:135" d="M34.09740973521598,242.61567684168475L26.0012251797594,204.0651939695888C17.905040624302817,165.51471109749284,1.7126715133896493,88.4137453533009,-41.83023750395683,32.6813633152037C-85.37314652130331,-23.051018722893495,-156.26659544508308,-57.41481705489596,-191.713319906973,-74.59671622089719L-227.1600443688629,-91.77861538689844" style="stroke-width: 2; fill: none; stroke: rgb(197, 200, 202);"></path><path class="link source-A:GLU:139 target-A:HIS:141" d="M99.650477553571,223.81863712243725L82.01181456937094,191.36247638136882C64.37315158517089,158.90631564030042,29.0958256167708,93.99399415816362,-17.857667682484625,84.01372106407746C-64.81116098174004,74.03344796999131,-123.44082161185081,118.9852232639558,-152.75565192690618,141.46111091093806L-182.07048224196157,163.9369985579203" style="stroke-width: 2; fill: none; stroke: rgb(197, 200, 202);"></path><path class="link source-A:ASP:116 target-A:SER:150" d="M227.16004436886288,-91.77861538689847L189.48733472957335,-79.16066218141829C151.8146250902838,-66.5427089759381,76.46920581170474,-41.306802564977744,3.2464944290296813,-46.42703333382801C-69.97621695364536,-51.54726410267827,-141.0762204404164,-87.02363205133915,-176.6262221838019,-104.76181602566959L-212.17622392718744,-122.50000000000003" style="stroke-width: 2; fill: none; stroke: rgb(197, 200, 202);"></path><path class="link source-A:ASP:27 target-A:FOL:201" d="M233.0088464923126,75.70916362186212L198.70952707146193,66.63448152463742C164.41020765061126,57.559799427412734,95.81156880890993,39.410435232963366,78.61513101638036,61.420871889040406C61.41869322385079,83.43130854511745,95.624456480493,145.6015460517209,112.72733810881408,176.68666480502264L129.8302197371352,207.7717835583244" style="stroke-width: 2; fill: none; stroke: rgb(197, 200, 202);"></path><path class="link source-A:FOL:201 target-A:THR:113" d="M129.8302197371352,207.7717835583244L107.6873362681295,173.53732212121224C85.54445279912382,139.30286068410012,41.25868586111244,70.83393780987588,-8.744900888819156,6.8322653696602345C-58.748487638750746,-57.1694070705554,-114.46989420060255,-116.70382907676242,-142.33059748152846,-146.47104007986593L-170.19130076245438,-176.23825108296944" style="stroke-width: 2; fill: none; stroke: rgb(197, 200, 202);"></path><path class="link source-A:ASP:79 target-A:LYS:106" d="M157.48296437320218,187.6808885641496L130.29173011784624,159.6931161224498C103.10049586249036,131.70534368075002,48.71802735177854,75.72979879735045,-16.36394112580726,57.06784464030254C-81.44590960339306,38.40589048325464,-157.22737804785282,57.05752705255839,-195.11811227008272,66.38334533721027L-233.0088464923126,75.70916362186215" style="stroke-width: 0; fill: none; stroke: rgb(197, 200, 202);"></path><path class="link source-A:ASN:147 target-A:ASP:144" d="M193.06263463364687,-150.8370614547863L166.35944620203892,-127.47613477185533C139.65625777043104,-104.11520808892438,86.24988090721521,-57.393354723062444,94.88123390488715,-30.828781698579277C103.5125869025591,-4.264208674096115,174.1816697611188,2.1430840090082905,209.51621119039862,5.3467303505604935L244.85075261967847,8.550376692112696" style="stroke-width: 0; fill: none; stroke: rgb(197, 200, 202);"></path><path class="link source-A:GLU:91 target-A:SER:3" d="M-129.83021973713517,207.7717835583244L-112.22801046058075,173.85483699156453C-94.62580118402633,139.9378904248047,-59.42138263091749,72.10399729128504,-69.96011844700278,12.33585645576661C-80.49885426308808,-47.43228437975181,-136.7807444483675,-99.13467291726899,-164.9216895410072,-124.98586718602758L-193.06263463364695,-150.83706145478618" style="stroke-width: 0; fill: none; stroke: rgb(197, 200, 202);"></path><path class="link source-A:GLU:91 target-A:LYS:39" d="M-129.83021973713517,207.7717835583244L-112.7862581893804,174.99941445447539C-95.74229664162564,142.22704535062638,-61.654373546116105,76.68230714292842,-79.63641241286344,32.17519914622126C-97.61845127961077,-12.331908850485886,-167.67045210861497,-35.80138663620221,-202.69645252311705,-47.53612552906037L-237.72245293761915,-59.27086442191854" style="stroke-width: 0; fill: none; stroke: rgb(197, 200, 202);"></path><path class="link source-A:ARG:45 target-A:GLU:49" d="M50.938364250351064,-239.64616217978238L42.24122702623238,-199.7568482332548C33.5440898021137,-159.86753428672728,16.149815353876342,-80.08890639367216,-3.595104050376283,-0.8963601128937526C-23.340023454628906,78.29618616788467,-45.43558781489679,156.90265083638639,-56.483369995030735,196.20588317063726L-67.53115217516468,235.50911550488814" style="stroke-width: 0; fill: none; stroke: rgb(197, 200, 202);"></path><path class="link source-A:ARG:45 target-A:HIS:46" d="M50.938364250351064,-239.64616217978238L40.33280966163074,-201.35820054002437C29.727255072910424,-163.07023890026636,8.516145895469784,-86.49431562075037,-36.67433837013803,-28.653133430232646C-81.86482263574585,29.18804876028509,-151.03468198952083,68.29448986180455,-185.61961166640836,87.8477104125643L-220.20454134329586,107.40093096332403" style="stroke-width: 0; fill: none; stroke: rgb(197, 200, 202);"></path><path class="link source-A:ARG:58 target-A:THR:36" d="M115.02053288254326,-216.3221602504371L96.65147117668846,-185.96807090574197C78.28240947083364,-155.61398156104687,41.544286059124026,-94.90580287165668,13.88446987030829,-98.79313652654756C-13.775346318507443,-102.68047018143844,-32.356855284429294,-171.1633161806104,-41.64760976739022,-205.40473918019637L-50.93836425035115,-239.64616217978238" style="stroke-width: 0; fill: none; stroke: rgb(197, 200, 202);"></path><path class="link source-A:ARG:58 target-A:FOL:201" d="M115.02053288254326,-216.3221602504371L98.91107847653204,-180.37534658401563C82.8016240705208,-144.4285329175942,50.58271525849835,-72.53490558475133,53.05099640093033,-1.8525816166244198C55.51927754336232,68.82974235150249,92.67474864024875,138.30076295491344,111.25248418869197,173.0362732566189L129.8302197371352,207.7717835583244" style="stroke-width: 0; fill: none; stroke: rgb(197, 200, 202);"></path><path class="link source-A:ARG:72 target-A:ASP:70" d="M170.19130076245432,-176.23825108296955L146.22935625626712,-147.01897489237106C122.26741175007993,-117.7996987017726,74.34352273770557,-59.36114632057565,76.32338631762346,-2.665271380427356C78.30324989754135,54.03060355972094,130.1868660697515,108.98380105882057,156.12867415585657,136.4603998083704L182.07048224196166,163.93699855792022" style="stroke-width: 0; fill: none; stroke: rgb(197, 200, 202);"></path><path class="link source-A:GLU:158 target-A:LYS:110" d="M1.5001923289555078e-14,245L-3.060634407745969,207.33604637531803C-6.121268815491953,169.67209275063612,-12.24253763098392,94.34418550127229,-53.05099640093034,54.93591494995774C-93.85945517087674,15.527644398643194,-169.3551038952776,12.039010545377932,-207.10292825747806,10.294693618745303L-244.85075261967847,8.550376692112673" style="stroke-width: 0; fill: none; stroke: rgb(197, 200, 202);"></path><path class="link source-A:ASP:123 target-A:THR:124" d="M243.65786436522694,-25.60947350057508L204.65618694788932,-24.365373339033553C165.6545095305517,-23.121273177492025,87.6511546958765,-20.633072854408972,27.87142182124813,-52.41852064605264C-31.90831105338023,-84.2039684376963,-73.46442196796174,-150.2630643440667,-94.24247742525249,-183.29261229725188L-115.02053288254325,-216.3221602504371" style="stroke-width: 0; fill: none; stroke: rgb(197, 200, 202);"></path><path class="link source-A:GLU:140 target-A:HIS:142" d="M67.53115217516479,235.50911550488814L54.5811719822104,200.9139884647637C41.631191789256015,166.3188614246393,15.731231403347243,97.12860734439045,-29.376328171844413,80.71079831863126C-74.48388774703606,64.29298929287208,-138.7990465115106,100.64762532160258,-170.95662589374786,118.82494333596783L-203.11420527598514,137.00226135033307" style="stroke-width: 0; fill: none; stroke: rgb(197, 200, 202);"></path><path class="link source-A:ASN:148 target-A:ASP:145" d="M212.17622392718746,-122.5L182.4816964820126,-103.08278578922834C152.78716903683778,-83.6655715784567,93.39811414648807,-44.831143156913434,98.248393406622,-17.323842568847112C103.0986726667559,10.18345801921921,172.18828607737345,26.36363077380857,206.7330927826822,34.453717151103255L241.27789948799096,42.54380352839794" style="stroke-width: 0; fill: none; stroke: rgb(197, 200, 202);"></path><path class="link source-A:ASP:28 target-A:FOL:201" d="M220.2045413432959,107.400930963324L187.87921896625195,93.4404347342906C155.55389658920802,79.47993850525721,90.90325183512019,51.55894604719042,75.84086490076007,68.2874214796905C60.77847796639995,85.01589691219054,95.30434885176757,146.39384023525747,112.56728429445137,177.0828118967909L129.8302197371352,207.7717835583244" style="stroke-width: 0; fill: none; stroke: rgb(197, 200, 202);"></path><g class="node" id="node-A:GLU:90" transform="rotate(114)translate(245)"><text dx="-8" dy=".31em" text-anchor="end" transform="rotate(180)">A:GLU:90</text></g><g class="node" id="node-A:SER:3" transform="rotate(218)translate(245)"><text dx="-8" dy=".31em" text-anchor="end" transform="rotate(180)">A:SER:3</text></g><g class="node" id="node-A:LYS:38" transform="rotate(186)translate(245)"><text dx="-8" dy=".31em" text-anchor="end" transform="rotate(180)">A:LYS:38</text></g><g class="node" id="node-A:ARG:44" transform="rotate(-86)translate(245)"><text dx="8" dy=".31em" text-anchor="start">A:ARG:44</text></g><g class="node" id="node-A:GLU:48" transform="rotate(98)translate(245)"><text dx="-8" dy=".31em" text-anchor="end" transform="rotate(180)">A:GLU:48</text></g><g class="node" id="node-A:ARG:57" transform="rotate(-70)translate(245)"><text dx="8" dy=".31em" text-anchor="start">A:ARG:57</text></g><g class="node" id="node-A:THR:35" transform="rotate(250)translate(245)"><text dx="-8" dy=".31em" text-anchor="end" transform="rotate(180)">A:THR:35</text></g><g class="node" id="node-A:FOL:201" transform="rotate(58)translate(245)"><text dx="8" dy=".31em" text-anchor="start">A:FOL:201</text></g><g class="node" id="node-A:ARG:71" transform="rotate(-54)translate(245)"><text dx="8" dy=".31em" text-anchor="start">A:ARG:71</text></g><g class="node" id="node-A:ASP:69" transform="rotate(34)translate(245)"><text dx="8" dy=".31em" text-anchor="start">A:ASP:69</text></g><g class="node" id="node-A:LYS:109" transform="rotate(170)translate(245)"><text dx="-8" dy=".31em" text-anchor="end" transform="rotate(180)">A:LYS:109</text></g><g class="node" id="node-A:TYR:111" transform="rotate(266)translate(245)"><text dx="-8" dy=".31em" text-anchor="end" transform="rotate(180)">A:TYR:111</text></g><g class="node" id="node-A:ASP:27" transform="rotate(18)translate(245)"><text dx="8" dy=".31em" text-anchor="start">A:ASP:27</text></g><g class="node" id="node-A:THR:113" transform="rotate(226)translate(245)"><text dx="-8" dy=".31em" text-anchor="end" transform="rotate(180)">A:THR:113</text></g><g class="node" id="node-A:GLU:154" transform="rotate(82)translate(245)"><text dx="8" dy=".31em" text-anchor="start">A:GLU:154</text></g><g class="node" id="node-A:HIS:114" transform="rotate(130.00000000000003)translate(245)"><text dx="-8" dy=".31em" text-anchor="end" transform="rotate(180)">A:HIS:114</text></g><g class="node" id="node-A:ASP:122" transform="rotate(-14)translate(245)"><text dx="8" dy=".31em" text-anchor="start">A:ASP:122</text></g><g class="node" id="node-A:THR:123" transform="rotate(234)translate(245)"><text dx="-8" dy=".31em" text-anchor="end" transform="rotate(180)">A:THR:123</text></g><g class="node" id="node-A:SER:135" transform="rotate(202)translate(245)"><text dx="-8" dy=".31em" text-anchor="end" transform="rotate(180)">A:SER:135</text></g><g class="node" id="node-A:GLU:139" transform="rotate(66)translate(245)"><text dx="8" dy=".31em" text-anchor="start">A:GLU:139</text></g><g class="node" id="node-A:HIS:141" transform="rotate(138)translate(245)"><text dx="-8" dy=".31em" text-anchor="end" transform="rotate(180)">A:HIS:141</text></g><g class="node" id="node-A:ASP:116" transform="rotate(-22)translate(245)"><text dx="8" dy=".31em" text-anchor="start">A:ASP:116</text></g><g class="node" id="node-A:SER:150" transform="rotate(210)translate(245)"><text dx="-8" dy=".31em" text-anchor="end" transform="rotate(180)">A:SER:150</text></g><g class="node" id="node-A:ASP:79" transform="rotate(50)translate(245)"><text dx="8" dy=".31em" text-anchor="start">A:ASP:79</text></g><g class="node" id="node-A:LYS:106" transform="rotate(161.99999999999997)translate(245)"><text dx="-8" dy=".31em" text-anchor="end" transform="rotate(180)">A:LYS:106</text></g><g class="node" id="node-A:ASN:147" transform="rotate(-38.00000000000001)translate(245)"><text dx="8" dy=".31em" text-anchor="start">A:ASN:147</text></g><g class="node" id="node-A:ASP:144" transform="rotate(2)translate(245)"><text dx="8" dy=".31em" text-anchor="start">A:ASP:144</text></g><g class="node" id="node-A:GLU:91" transform="rotate(122)translate(245)"><text dx="-8" dy=".31em" text-anchor="end" transform="rotate(180)">A:GLU:91</text></g><g class="node" id="node-A:LYS:39" transform="rotate(194)translate(245)"><text dx="-8" dy=".31em" text-anchor="end" transform="rotate(180)">A:LYS:39</text></g><g class="node" id="node-A:ARG:45" transform="rotate(-78)translate(245)"><text dx="8" dy=".31em" text-anchor="start">A:ARG:45</text></g><g class="node" id="node-A:GLU:49" transform="rotate(105.99999999999997)translate(245)"><text dx="-8" dy=".31em" text-anchor="end" transform="rotate(180)">A:GLU:49</text></g><g class="node" id="node-A:HIS:46" transform="rotate(154)translate(245)"><text dx="-8" dy=".31em" text-anchor="end" transform="rotate(180)">A:HIS:46</text></g><g class="node" id="node-A:ARG:58" transform="rotate(-62)translate(245)"><text dx="8" dy=".31em" text-anchor="start">A:ARG:58</text></g><g class="node" id="node-A:THR:36" transform="rotate(258)translate(245)"><text dx="-8" dy=".31em" text-anchor="end" transform="rotate(180)">A:THR:36</text></g><g class="node" id="node-A:ARG:72" transform="rotate(-46)translate(245)"><text dx="8" dy=".31em" text-anchor="start">A:ARG:72</text></g><g class="node" id="node-A:ASP:70" transform="rotate(42)translate(245)"><text dx="8" dy=".31em" text-anchor="start">A:ASP:70</text></g><g class="node" id="node-A:GLU:158" transform="rotate(90)translate(245)"><text dx="-8" dy=".31em" text-anchor="end" transform="rotate(180)">A:GLU:158</text></g><g class="node" id="node-A:LYS:110" transform="rotate(178)translate(245)"><text dx="-8" dy=".31em" text-anchor="end" transform="rotate(180)">A:LYS:110</text></g><g class="node" id="node-A:ASP:123" transform="rotate(-6)translate(245)"><text dx="8" dy=".31em" text-anchor="start">A:ASP:123</text></g><g class="node" id="node-A:THR:124" transform="rotate(242)translate(245)"><text dx="-8" dy=".31em" text-anchor="end" transform="rotate(180)">A:THR:124</text></g><g class="node" id="node-A:GLU:140" transform="rotate(74)translate(245)"><text dx="8" dy=".31em" text-anchor="start">A:GLU:140</text></g><g class="node" id="node-A:HIS:142" transform="rotate(146)translate(245)"><text dx="-8" dy=".31em" text-anchor="end" transform="rotate(180)">A:HIS:142</text></g><g class="node" id="node-A:ASN:148" transform="rotate(-30)translate(245)"><text dx="8" dy=".31em" text-anchor="start">A:ASN:148</text></g><g class="node" id="node-A:ASP:145" transform="rotate(10)translate(245)"><text dx="8" dy=".31em" text-anchor="start">A:ASP:145</text></g><g class="node" id="node-A:ASP:28" transform="rotate(26.000000000000014)translate(245)"><text dx="8" dy=".31em" text-anchor="start">A:ASP:28</text></g></g></svg>
