<?xml version="1.0" encoding="UTF-8" standalone="no"?>
<!-- Created with matplotlib (http://matplotlib.org/) -->

<svg
   xmlns:dc="http://purl.org/dc/elements/1.1/"
   xmlns:cc="http://creativecommons.org/ns#"
   xmlns:rdf="http://www.w3.org/1999/02/22-rdf-syntax-ns#"
   xmlns:svg="http://www.w3.org/2000/svg"
   xmlns="http://www.w3.org/2000/svg"
   xmlns:xlink="http://www.w3.org/1999/xlink"
   xmlns:sodipodi="http://sodipodi.sourceforge.net/DTD/sodipodi-0.dtd"
   xmlns:inkscape="http://www.inkscape.org/namespaces/inkscape"
   height="57.784565pt"
   version="1.1"
   viewBox="0 0 220.45291 57.784564"
   width="220.45291pt"
   id="svg2"
   inkscape:version="0.91 r13725"
   sodipodi:docname="residue_labels_before-after.svg">
  <metadata
     id="metadata12020">
    <rdf:RDF>
      <cc:Work
         rdf:about="">
        <dc:format>image/svg+xml</dc:format>
        <dc:type
           rdf:resource="http://purl.org/dc/dcmitype/StillImage" />
        <dc:title></dc:title>
      </cc:Work>
    </rdf:RDF>
  </metadata>
  <sodipodi:namedview
     pagecolor="#ffffff"
     bordercolor="#666666"
     borderopacity="1"
     objecttolerance="10"
     gridtolerance="10"
     guidetolerance="10"
     inkscape:pageopacity="0"
     inkscape:pageshadow="2"
     inkscape:window-width="1680"
     inkscape:window-height="1006"
     id="namedview12018"
     showgrid="false"
     fit-margin-top="5"
     fit-margin-left="2"
     fit-margin-right="2"
     fit-margin-bottom="2"
     inkscape:zoom="3.3717888"
     inkscape:cx="148.82403"
     inkscape:cy="55.236865"
     inkscape:window-x="0"
     inkscape:window-y="0"
     inkscape:window-maximized="0"
     inkscape:current-layer="svg2" />
  <defs
     id="defs4"
     style="stroke-linecap:butt;stroke-linejoin:round">
    <style
       type="text/css"
       id="style6">
*{stroke-linecap:butt;stroke-linejoin:round;}
  </style>
    <style
       id="style60630"
       type="text/css">
*{stroke-linecap:butt;stroke-linejoin:round;}
  </style>
    <defs
       id="defs4756">
      <path
         id="path4758"
         d="m 9.8125,72.90625 13.28125,0 32.328125,-60.984375 0,60.984375 9.5625,0 0,-72.90625 -13.28125,0 -32.3125,60.984375 L 19.390625,0 9.8125,0 Z"
         inkscape:connector-curvature="0"
         style="stroke-linecap:butt;stroke-linejoin:round" />
    </defs>
    <defs
       id="defs4910">
      <path
         d="m 9.8125,72.90625 46.09375,0 0,-8.3125 -36.234375,0 0,-21.578125 34.71875,0 0,-8.296875 -34.71875,0 0,-26.421875 37.109375,0 L 56.78125,0 9.8125,0 Z"
         id="path4912"
         inkscape:connector-curvature="0"
         style="stroke-linecap:butt;stroke-linejoin:round" />
      <path
         d="m 9.8125,72.90625 9.859375,0 0,-64.609375 35.5,0 L 55.171875,0 9.8125,0 Z"
         id="path4914"
         inkscape:connector-curvature="0"
         style="stroke-linecap:butt;stroke-linejoin:round" />
    </defs>
  </defs>
  <defs
     id="defs12004">
    <clipPath
       id="p113822f5b9"
       style="stroke-linecap:butt;stroke-linejoin:round">
      <rect
         height="881.16559"
         width="63.437084"
         x="7.1999998"
         y="236.73404"
         id="rect12007"
         style="stroke-linecap:butt;stroke-linejoin:round" />
    </clipPath>
    <clipPath
       id="p3ee1d92116"
       style="stroke-linecap:butt;stroke-linejoin:round">
      <rect
         height="223.96292"
         width="492.71524"
         x="72.484772"
         y="9.0996094"
         id="rect12010"
         style="stroke-linecap:butt;stroke-linejoin:round" />
    </clipPath>
    <clipPath
       id="pf1b38f4682"
       style="stroke-linecap:butt;stroke-linejoin:round">
      <rect
         height="881.16559"
         width="492.71524"
         x="72.484772"
         y="236.73404"
         id="rect12013"
         style="stroke-linecap:butt;stroke-linejoin:round" />
    </clipPath>
    <clipPath
       id="p6a6c0fc26f"
       style="stroke-linecap:butt;stroke-linejoin:round">
      <rect
         height="176.23311"
         width="12.317881"
         x="7.1999998"
         y="9.0996094"
         id="rect12016"
         style="stroke-linecap:butt;stroke-linejoin:round" />
    </clipPath>
  </defs>
  <g
     id="matplotlib.axis_3"
     style="stroke-linecap:butt;stroke-linejoin:round"
     transform="translate(285.9876,303.44465)" />
  <g
     style="stroke-linecap:butt;stroke-linejoin:round"
     id="ytick_4-4"
     transform="translate(-405.36779,-250.41318)">
    <g
       style="stroke-linecap:butt;stroke-linejoin:round"
       id="line2d_38-3" />
    <g
       style="stroke-linecap:butt;stroke-linejoin:round"
       id="text_38-8">
      <!-- A:GLU:1 - A:LEU:49 -->
      <defs
         id="defs64618">
        <path
           style="stroke-linecap:butt;stroke-linejoin:round"
           inkscape:connector-curvature="0"
           d="m 8.6875,72.90625 9.921875,0 0,-44.296875 q 0,-11.71875 4.234375,-16.875 4.25,-5.140625 13.78125,-5.140625 9.46875,0 13.71875,5.140625 4.25,5.15625 4.25,16.875 l 0,44.296875 9.90625,0 0,-45.515625 q 0,-14.25 -7.0625,-21.53125 -7.046875,-7.28125 -20.8125,-7.28125 -13.828125,0 -20.890625,7.28125 Q 8.6875,13.140625 8.6875,27.390625 Z"
           id="DejaVuSans-55" />
      </defs>
      <g
         style="fill:#262626;stroke-linecap:butt;stroke-linejoin:round"
         transform="matrix(0.05,0,0,-0.05,572.2,273.28623)"
         id="g64621">
        <path
           style="stroke-linecap:butt;stroke-linejoin:round"
           inkscape:connector-curvature="0"
           d="m 34.1875,63.1875 -13.390625,-36.28125 26.8125,0 z m -5.578125,9.71875 11.1875,0 L 67.578125,0 l -10.25,0 -6.640625,18.703125 -32.859375,0 L 11.1875,0 0.78125,0 Z"
           id="use64623" />
        <path
           style="stroke-linecap:butt;stroke-linejoin:round"
           inkscape:connector-curvature="0"
           d="m 80.111328,12.40625 10.296875,0 0,-12.40625 -10.296875,0 z m 0,39.296875 10.296875,0 0,-12.390625 -10.296875,0 z"
           id="use64625" />
        <path
           style="stroke-linecap:butt;stroke-linejoin:round"
           inkscape:connector-curvature="0"
           d="m 161.5996,10.40625 0,19.578125 -16.10937,0 0,8.109375 25.875,0 0,-31.3125 q -5.70313,-4.046875 -12.59375,-6.125 -6.875,-2.078125 -14.6875,-2.078125 -17.09375,0 -26.75,9.984375 -9.64063,10 -9.64063,27.8125 0,17.875 9.64063,27.859375 9.65625,9.984375 26.75,9.984375 7.125,0 13.54687,-1.765625 6.42188,-1.75 11.84375,-5.171875 l 0,-10.5 q -5.46875,4.640625 -11.625,6.984375 -6.15625,2.34375 -12.9375,2.34375 -13.39062,0 -20.10937,-7.46875 -6.70313,-7.46875 -6.70313,-22.265625 0,-14.75 6.70313,-22.21875 6.71875,-7.46875 20.10937,-7.46875 5.21875,0 9.3125,0.90625 4.10938,0.90625 7.375,2.8125 z"
           id="use64627" />
        <path
           style="stroke-linecap:butt;stroke-linejoin:round"
           inkscape:connector-curvature="0"
           d="m 189.38672,72.90625 9.85937,0 0,-64.609375 35.5,0 0,-8.296875 -45.35937,0 z"
           id="use64629" />
        <use
           height="100%"
           width="100%"
           y="0"
           style="stroke-linecap:butt;stroke-linejoin:round"
           x="235.20898"
           xlink:href="#DejaVuSans-55"
           id="use64631" />
        <path
           style="stroke-linecap:butt;stroke-linejoin:round"
           inkscape:connector-curvature="0"
           d="m 320.12109,12.40625 10.29688,0 0,-12.40625 -10.29688,0 z m 0,39.296875 10.29688,0 0,-12.390625 -10.29688,0 z"
           id="use64633" />
        <path
           id="use64635"
           d="m 354.5,8.296875 16.10937,0 0,55.625 -17.53125,-3.515625 0,8.984375 17.4375,3.515625 9.85938,0 0,-64.609375 16.10937,0 L 396.48437,0 354.5,0 Z"
           inkscape:connector-curvature="0"
           style="stroke-linecap:butt;stroke-linejoin:round" />
        <path
           style="stroke-linecap:butt;stroke-linejoin:round"
           inkscape:connector-curvature="0"
           d=""
           id="use64637" />
        <path
           id="use64639"
           d="m 442.39453,31.390625 26.3125,0 0,-8 -26.3125,0 z"
           inkscape:connector-curvature="0"
           style="stroke-linecap:butt;stroke-linejoin:round" />
        <path
           style="stroke-linecap:butt;stroke-linejoin:round"
           inkscape:connector-curvature="0"
           d=""
           id="use64641" />
        <path
           style="stroke-linecap:butt;stroke-linejoin:round"
           inkscape:connector-curvature="0"
           d="m 539.5625,63.1875 -13.39063,-36.28125 26.8125,0 z m -5.57813,9.71875 11.1875,0 L 572.95312,0 l -10.25,0 -6.64062,18.703125 -32.85938,0 L 516.5625,0 506.15625,0 Z"
           id="use64643" />
        <path
           style="stroke-linecap:butt;stroke-linejoin:round"
           inkscape:connector-curvature="0"
           d="m 585.48633,12.40625 10.29687,0 0,-12.40625 -10.29687,0 z m 0,39.296875 10.29687,0 0,-12.390625 -10.29687,0 z"
           id="use64645" />
        <path
           style="stroke-linecap:butt;stroke-linejoin:round"
           inkscape:connector-curvature="0"
           d="m 617.27148,72.90625 9.85938,0 0,-64.609375 35.5,0 0,-8.296875 -45.35938,0 z"
           id="use64647" />
        <path
           style="stroke-linecap:butt;stroke-linejoin:round"
           inkscape:connector-curvature="0"
           d="m 672.98437,72.90625 46.09375,0 0,-8.3125 -36.23437,0 0,-21.578125 34.71875,0 0,-8.296875 -34.71875,0 0,-26.421875 37.10937,0 0,-8.296875 -46.96875,0 z"
           id="use64649" />
        <use
           height="100%"
           width="100%"
           y="0"
           style="stroke-linecap:butt;stroke-linejoin:round"
           x="726.35547"
           xlink:href="#DejaVuSans-55"
           id="use64651" />
        <path
           style="stroke-linecap:butt;stroke-linejoin:round"
           inkscape:connector-curvature="0"
           d="m 811.26758,12.40625 10.29687,0 0,-12.40625 -10.29687,0 z m 0,39.296875 10.29687,0 0,-12.390625 -10.29687,0 z"
           id="use64653" />
        <path
           id="use64655"
           d="m 871.03711,64.3125 -24.90625,-38.921875 24.90625,0 z m -2.59375,8.59375 12.40625,0 0,-47.515625 10.40625,0 0,-8.203125 -10.40625,0 0,-17.1875 -9.8125,0 0,17.1875 -32.90625,0 0,9.515625 z"
           inkscape:connector-curvature="0"
           style="stroke-linecap:butt;stroke-linejoin:round" />
        <path
           id="use64657"
           d="m 907.84766,1.515625 0,8.984375 q 3.71875,-1.765625 7.51562,-2.6875 3.8125,-0.921875 7.48438,-0.921875 9.76562,0 14.90625,6.5625 5.15625,6.5625 5.89062,19.953125 -2.82812,-4.203125 -7.1875,-6.453125 -4.34375,-2.25 -9.60937,-2.25 -10.9375,0 -17.3125,6.609375 -6.375,6.625 -6.375,18.109375 0,11.21875 6.64062,18 6.64063,6.796875 17.67188,6.796875 12.65625,0 19.3125,-9.703125 6.67187,-9.6875 6.67187,-28.140625 0,-17.234375 -8.1875,-27.515625 -8.17187,-10.28125 -21.98437,-10.28125 -3.71875,0 -7.53125,0.734375 -3.79688,0.734375 -7.90625,2.203125 z m 19.625,30.90625 q 6.64062,0 10.51562,4.53125 3.89063,4.546875 3.89063,12.46875 0,7.859375 -3.89063,12.421875 -3.875,4.5625 -10.51562,4.5625 -6.64063,0 -10.51563,-4.5625 -3.875,-4.5625 -3.875,-12.421875 0,-7.921875 3.875,-12.46875 3.875,-4.53125 10.51563,-4.53125 z"
           inkscape:connector-curvature="0"
           style="stroke-linecap:butt;stroke-linejoin:round" />
      </g>
    </g>
  </g>
  <g
     style="stroke-linecap:butt;stroke-linejoin:round"
     id="ytick_5-7"
     transform="translate(-405.36779,-250.41318)">
    <g
       style="stroke-linecap:butt;stroke-linejoin:round"
       id="line2d_39-9" />
    <g
       style="stroke-linecap:butt;stroke-linejoin:round"
       id="text_39-3">
      <!-- A:ALA:9 - A:ASP:41 -->
      <defs
         id="defs64662">
        <path
           style="stroke-linecap:butt;stroke-linejoin:round"
           inkscape:connector-curvature="0"
           d="m 53.515625,70.515625 0,-9.625 q -5.609375,2.6875 -10.59375,4 -4.984375,1.328125 -9.625,1.328125 -8.046875,0 -12.421875,-3.125 -4.375,-3.125 -4.375,-8.890625 0,-4.84375 2.90625,-7.3125 2.90625,-2.453125 11.015625,-3.96875 L 36.375,41.703125 Q 47.40625,39.59375 52.65625,34.296875 57.90625,29 57.90625,20.125 q 0,-10.609375 -7.109375,-16.078125 -7.09375,-5.46875 -20.8125,-5.46875 -5.171875,0 -11.015625,1.171875 -5.828125,1.171875 -12.078125,3.46875 l 0,10.15625 q 6,-3.359375 11.765625,-5.078125 5.765625,-1.703125 11.328125,-1.703125 8.4375,0 13.03125,3.3125 4.59375,3.328125 4.59375,9.484375 0,5.359375 -3.296875,8.390625 Q 41.015625,30.8125 33.5,32.328125 L 27.484375,33.5 q -11.03125,2.1875 -15.96875,6.875 -4.921875,4.6875 -4.921875,13.046875 0,9.671875 6.8125,15.234375 6.8125,5.5625 18.765625,5.5625 5.140625,0 10.453125,-0.9375 5.328125,-0.921875 10.890625,-2.765625 z"
           id="DejaVuSans-53-4" />
        <path
           style="stroke-linecap:butt;stroke-linejoin:round"
           inkscape:connector-curvature="0"
           d="m 19.671875,64.796875 0,-27.390625 12.40625,0 q 6.890625,0 10.640625,3.5625 3.765625,3.5625 3.765625,10.15625 0,6.546875 -3.765625,10.109375 -3.75,3.5625 -10.640625,3.5625 z M 9.8125,72.90625 l 22.265625,0 q 12.265625,0 18.53125,-5.546875 6.28125,-5.546875 6.28125,-16.234375 0,-10.796875 -6.28125,-16.3125 -6.265625,-5.515625 -18.53125,-5.515625 l -12.40625,0 L 19.671875,0 9.8125,0 Z"
           id="DejaVuSans-50" />
      </defs>
      <g
         style="fill:#262626;stroke-linecap:butt;stroke-linejoin:round"
         transform="matrix(0.05,0,0,-0.05,572.2,283.18697)"
         id="g64666">
        <path
           style="stroke-linecap:butt;stroke-linejoin:round"
           inkscape:connector-curvature="0"
           d="m 34.1875,63.1875 -13.390625,-36.28125 26.8125,0 z m -5.578125,9.71875 11.1875,0 L 67.578125,0 l -10.25,0 -6.640625,18.703125 -32.859375,0 L 11.1875,0 0.78125,0 Z"
           id="use64668" />
        <path
           style="stroke-linecap:butt;stroke-linejoin:round"
           inkscape:connector-curvature="0"
           d="m 80.111328,12.40625 10.296875,0 0,-12.40625 -10.296875,0 z m 0,39.296875 10.296875,0 0,-12.390625 -10.296875,0 z"
           id="use64670" />
        <path
           style="stroke-linecap:butt;stroke-linejoin:round"
           inkscape:connector-curvature="0"
           d="m 136.27148,63.1875 -13.39063,-36.28125 26.8125,0 z m -5.57813,9.71875 11.1875,0 L 169.6621,0 l -10.25,0 -6.64062,18.703125 -32.85938,0 L 113.27148,0 102.86523,0 Z"
           id="use64672" />
        <path
           style="stroke-linecap:butt;stroke-linejoin:round"
           inkscape:connector-curvature="0"
           d="m 180.30469,72.90625 9.85937,0 0,-64.609375 35.5,0 0,-8.296875 -45.35937,0 z"
           id="use64674" />
        <path
           style="stroke-linecap:butt;stroke-linejoin:round"
           inkscape:connector-curvature="0"
           d="m 260.42383,63.1875 -13.39063,-36.28125 26.8125,0 z m -5.57813,9.71875 11.1875,0 L 293.81445,0 l -10.25,0 -6.64062,18.703125 -32.85938,0 L 237.42383,0 227.01758,0 Z"
           id="use64676" />
        <path
           style="stroke-linecap:butt;stroke-linejoin:round"
           inkscape:connector-curvature="0"
           d="m 306.34766,12.40625 10.29687,0 0,-12.40625 -10.29687,0 z m 0,39.296875 10.29687,0 0,-12.390625 -10.29687,0 z"
           id="use64678" />
        <path
           id="use64680"
           d="m 339.30469,1.515625 0,8.984375 q 3.71875,-1.765625 7.51562,-2.6875 3.8125,-0.921875 7.48438,-0.921875 9.76562,0 14.90625,6.5625 5.15625,6.5625 5.89062,19.953125 -2.82812,-4.203125 -7.1875,-6.453125 -4.34375,-2.25 -9.60937,-2.25 -10.9375,0 -17.3125,6.609375 -6.375,6.625 -6.375,18.109375 0,11.21875 6.64062,18 6.64063,6.796875 17.67188,6.796875 12.65625,0 19.3125,-9.703125 6.67187,-9.6875 6.67187,-28.140625 0,-17.234375 -8.1875,-27.515625 -8.17187,-10.28125 -21.98437,-10.28125 -3.71875,0 -7.53125,0.734375 -3.79688,0.734375 -7.90625,2.203125 z m 19.625,30.90625 q 6.64062,0 10.51562,4.53125 3.89063,4.546875 3.89063,12.46875 0,7.859375 -3.89063,12.421875 -3.875,4.5625 -10.51562,4.5625 -6.64063,0 -10.51563,-4.5625 -3.875,-4.5625 -3.875,-12.421875 0,-7.921875 3.875,-12.46875 3.875,-4.53125 10.51563,-4.53125 z"
           inkscape:connector-curvature="0"
           style="stroke-linecap:butt;stroke-linejoin:round" />
        <path
           style="stroke-linecap:butt;stroke-linejoin:round"
           inkscape:connector-curvature="0"
           d=""
           id="use64682" />
        <path
           id="use64684"
           d="m 428.62109,31.390625 26.3125,0 0,-8 -26.3125,0 z"
           inkscape:connector-curvature="0"
           style="stroke-linecap:butt;stroke-linejoin:round" />
        <path
           style="stroke-linecap:butt;stroke-linejoin:round"
           inkscape:connector-curvature="0"
           d=""
           id="use64686" />
        <path
           style="stroke-linecap:butt;stroke-linejoin:round"
           inkscape:connector-curvature="0"
           d="m 525.78906,63.1875 -13.39062,-36.28125 26.8125,0 z m -5.57812,9.71875 11.1875,0 L 559.17969,0 l -10.25,0 -6.64063,18.703125 -32.85937,0 L 502.78906,0 492.38281,0 Z"
           id="use64688" />
        <path
           style="stroke-linecap:butt;stroke-linejoin:round"
           inkscape:connector-curvature="0"
           d="m 571.71289,12.40625 10.29688,0 0,-12.40625 -10.29688,0 z m 0,39.296875 10.29688,0 0,-12.390625 -10.29688,0 z"
           id="use64690" />
        <path
           style="stroke-linecap:butt;stroke-linejoin:round"
           inkscape:connector-curvature="0"
           d="m 627.87305,63.1875 -13.39063,-36.28125 26.8125,0 z m -5.57813,9.71875 11.1875,0 L 661.26367,0 l -10.25,0 -6.64062,18.703125 -32.85938,0 L 604.87305,0 594.4668,0 Z"
           id="use64692" />
        <use
           height="100%"
           width="100%"
           y="0"
           style="stroke-linecap:butt;stroke-linejoin:round"
           x="662.09375"
           xlink:href="#DejaVuSans-53-4"
           id="use64694" />
        <use
           height="100%"
           width="100%"
           y="0"
           style="stroke-linecap:butt;stroke-linejoin:round"
           x="725.57031"
           xlink:href="#DejaVuSans-50"
           id="use64696" />
        <path
           style="stroke-linecap:butt;stroke-linejoin:round"
           inkscape:connector-curvature="0"
           d="m 797.5918,12.40625 10.29687,0 0,-12.40625 -10.29687,0 z m 0,39.296875 10.29687,0 0,-12.390625 -10.29687,0 z"
           id="use64698" />
        <path
           id="use64700"
           d="m 857.36133,64.3125 -24.90625,-38.921875 24.90625,0 z m -2.59375,8.59375 12.40625,0 0,-47.515625 10.40625,0 0,-8.203125 -10.40625,0 0,-17.1875 -9.8125,0 0,17.1875 -32.90625,0 0,9.515625 z"
           inkscape:connector-curvature="0"
           style="stroke-linecap:butt;stroke-linejoin:round" />
        <path
           id="use64702"
           d="m 895.59375,8.296875 16.10937,0 0,55.625 -17.53125,-3.515625 0,8.984375 17.4375,3.515625 9.85938,0 0,-64.609375 16.10937,0 0,-8.296875 -41.98437,0 z"
           inkscape:connector-curvature="0"
           style="stroke-linecap:butt;stroke-linejoin:round" />
      </g>
    </g>
  </g>
  <g
     style="stroke-linecap:butt;stroke-linejoin:round"
     id="ytick_6-0"
     transform="translate(-405.36779,-250.41318)">
    <g
       style="stroke-linecap:butt;stroke-linejoin:round"
       id="line2d_40-7" />
    <g
       style="stroke-linecap:butt;stroke-linejoin:round"
       id="text_40-9">
      <!-- A:ASP:39 - A:THR:42 -->
      <defs
         id="defs64707">
        <path
           style="stroke-linecap:butt;stroke-linejoin:round"
           inkscape:connector-curvature="0"
           d="m -0.296875,72.90625 61.671875,0 0,-8.3125 -25.875,0 L 35.5,0 l -9.90625,0 0,64.59375 -25.890625,0 z"
           id="DejaVuSans-54-2" />
        <path
           style="stroke-linecap:butt;stroke-linejoin:round"
           inkscape:connector-curvature="0"
           d="m 9.8125,72.90625 9.859375,0 0,-29.890625 35.84375,0 0,29.890625 9.859375,0 0,-72.90625 -9.859375,0 0,34.71875 -35.84375,0 L 19.671875,0 9.8125,0 Z"
           id="DejaVuSans-48" />
        <path
           style="stroke-linecap:butt;stroke-linejoin:round"
           inkscape:connector-curvature="0"
           d="m 44.390625,34.1875 q 3.171875,-1.078125 6.171875,-4.59375 3,-3.515625 6.03125,-9.671875 L 66.609375,0 56,0 46.6875,18.703125 q -3.625,7.328125 -7.015625,9.71875 -3.390625,2.390625 -9.25,2.390625 l -10.75,0 0,-30.8125 -9.859375,0 0,72.90625 22.265625,0 q 12.5,0 18.65625,-5.234375 6.15625,-5.21875 6.15625,-15.765625 0,-6.890625 -3.203125,-11.4375 -3.203125,-4.53125 -9.296875,-6.28125 z m -24.71875,30.609375 0,-25.875 12.40625,0 q 7.125,0 10.765625,3.296875 3.640625,3.296875 3.640625,9.6875 0,6.390625 -3.640625,9.640625 -3.640625,3.25 -10.765625,3.25 z"
           id="DejaVuSans-52-8" />
      </defs>
      <g
         style="fill:#262626;stroke-linecap:butt;stroke-linejoin:round"
         transform="matrix(0.05,0,0,-0.05,572.2,293.08771)"
         id="g64712">
        <path
           style="stroke-linecap:butt;stroke-linejoin:round"
           inkscape:connector-curvature="0"
           d="m 34.1875,63.1875 -13.390625,-36.28125 26.8125,0 z m -5.578125,9.71875 11.1875,0 L 67.578125,0 l -10.25,0 -6.640625,18.703125 -32.859375,0 L 11.1875,0 0.78125,0 Z"
           id="use64714" />
        <path
           style="stroke-linecap:butt;stroke-linejoin:round"
           inkscape:connector-curvature="0"
           d="m 80.111328,12.40625 10.296875,0 0,-12.40625 -10.296875,0 z m 0,39.296875 10.296875,0 0,-12.390625 -10.296875,0 z"
           id="use64716" />
        <path
           style="stroke-linecap:butt;stroke-linejoin:round"
           inkscape:connector-curvature="0"
           d="m 136.27148,63.1875 -13.39063,-36.28125 26.8125,0 z m -5.57813,9.71875 11.1875,0 L 169.6621,0 l -10.25,0 -6.64062,18.703125 -32.85938,0 L 113.27148,0 102.86523,0 Z"
           id="use64718" />
        <use
           height="100%"
           width="100%"
           y="0"
           style="stroke-linecap:butt;stroke-linejoin:round"
           x="170.49219"
           xlink:href="#DejaVuSans-53-4"
           id="use64720" />
        <use
           height="100%"
           width="100%"
           y="0"
           style="stroke-linecap:butt;stroke-linejoin:round"
           x="233.96875"
           xlink:href="#DejaVuSans-50"
           id="use64722" />
        <path
           style="stroke-linecap:butt;stroke-linejoin:round"
           inkscape:connector-curvature="0"
           d="m 305.99023,12.40625 10.29688,0 0,-12.40625 -10.29688,0 z m 0,39.296875 10.29688,0 0,-12.390625 -10.29688,0 z"
           id="use64724" />
        <path
           id="use64726"
           d="m 368.54102,39.3125 q 7.07812,-1.515625 11.04687,-6.3125 3.98438,-4.78125 3.98438,-11.8125 0,-10.78125 -7.42188,-16.703125 -7.42187,-5.90625 -21.09375,-5.90625 -4.57812,0 -9.4375,0.90625 -4.85937,0.90625 -10.03125,2.71875 l 0,9.515625 q 4.09375,-2.390625 8.96875,-3.609375 4.89063,-1.21875 10.21875,-1.21875 9.26563,0 14.125,3.65625 4.85938,3.65625 4.85938,10.640625 0,6.453125 -4.51563,10.078125 -4.51562,3.640625 -12.5625,3.640625 l -8.5,0 0,8.109375 8.89063,0 q 7.26562,0 11.125,2.90625 3.85937,2.90625 3.85937,8.375 0,5.609375 -3.98437,8.609375 -3.96875,3.015625 -11.39063,3.015625 -4.0625,0 -8.70312,-0.890625 -4.64063,-0.875 -10.20313,-2.71875 l 0,8.78125 q 5.625,1.5625 10.53125,2.34375 4.90625,0.78125 9.25,0.78125 11.23438,0 17.76563,-5.109375 6.54687,-5.09375 6.54687,-13.78125 0,-6.0625 -3.46875,-10.234375 -3.46875,-4.171875 -9.85937,-5.78125 z"
           inkscape:connector-curvature="0"
           style="stroke-linecap:butt;stroke-linejoin:round" />
        <path
           id="use64728"
           d="m 402.57031,1.515625 0,8.984375 q 3.71875,-1.765625 7.51563,-2.6875 3.8125,-0.921875 7.48437,-0.921875 9.76563,0 14.90625,6.5625 5.15625,6.5625 5.89063,19.953125 -2.82813,-4.203125 -7.1875,-6.453125 -4.34375,-2.25 -9.60938,-2.25 -10.9375,0 -17.3125,6.609375 -6.375,6.625 -6.375,18.109375 0,11.21875 6.64063,18 6.64062,6.796875 17.67187,6.796875 12.65625,0 19.3125,-9.703125 6.67188,-9.6875 6.67188,-28.140625 0,-17.234375 -8.1875,-27.515625 -8.17188,-10.28125 -21.98438,-10.28125 -3.71875,0 -7.53125,0.734375 -3.79687,0.734375 -7.90625,2.203125 z m 19.625,30.90625 q 6.64063,0 10.51563,4.53125 3.89062,4.546875 3.89062,12.46875 0,7.859375 -3.89062,12.421875 -3.875,4.5625 -10.51563,4.5625 -6.64062,0 -10.51562,-4.5625 -3.875,-4.5625 -3.875,-12.421875 0,-7.921875 3.875,-12.46875 3.875,-4.53125 10.51562,-4.53125 z"
           inkscape:connector-curvature="0"
           style="stroke-linecap:butt;stroke-linejoin:round" />
        <path
           style="stroke-linecap:butt;stroke-linejoin:round"
           inkscape:connector-curvature="0"
           d=""
           id="use64730" />
        <path
           id="use64732"
           d="m 491.88672,31.390625 26.3125,0 0,-8 -26.3125,0 z"
           inkscape:connector-curvature="0"
           style="stroke-linecap:butt;stroke-linejoin:round" />
        <path
           style="stroke-linecap:butt;stroke-linejoin:round"
           inkscape:connector-curvature="0"
           d=""
           id="use64734" />
        <path
           style="stroke-linecap:butt;stroke-linejoin:round"
           inkscape:connector-curvature="0"
           d="m 589.05469,63.1875 -13.39063,-36.28125 26.8125,0 z m -5.57813,9.71875 11.1875,0 L 622.44531,0 l -10.25,0 -6.64062,18.703125 -32.85938,0 L 566.05469,0 555.64844,0 Z"
           id="use64736" />
        <path
           style="stroke-linecap:butt;stroke-linejoin:round"
           inkscape:connector-curvature="0"
           d="m 634.97852,12.40625 10.29687,0 0,-12.40625 -10.29687,0 z m 0,39.296875 10.29687,0 0,-12.390625 -10.29687,0 z"
           id="use64738" />
        <use
           height="100%"
           width="100%"
           y="0"
           style="stroke-linecap:butt;stroke-linejoin:round"
           x="656.95117"
           xlink:href="#DejaVuSans-54-2"
           id="use64740" />
        <use
           height="100%"
           width="100%"
           y="0"
           style="stroke-linecap:butt;stroke-linejoin:round"
           x="718.03516"
           xlink:href="#DejaVuSans-48"
           id="use64742" />
        <use
           height="100%"
           width="100%"
           y="0"
           style="stroke-linecap:butt;stroke-linejoin:round"
           x="793.23047"
           xlink:href="#DejaVuSans-52-8"
           id="use64744" />
        <path
           style="stroke-linecap:butt;stroke-linejoin:round"
           inkscape:connector-curvature="0"
           d="m 874.38477,12.40625 10.29687,0 0,-12.40625 -10.29687,0 z m 0,39.296875 10.29687,0 0,-12.390625 -10.29687,0 z"
           id="use64746" />
        <path
           id="use64748"
           d="m 934.1543,64.3125 -24.90625,-38.921875 24.90625,0 z m -2.59375,8.59375 12.40625,0 0,-47.515625 10.40625,0 0,-8.203125 -10.40625,0 0,-17.1875 -9.8125,0 0,17.1875 -32.90625,0 0,9.515625 z"
           inkscape:connector-curvature="0"
           style="stroke-linecap:butt;stroke-linejoin:round" />
        <path
           id="use64750"
           d="m 979.16797,8.296875 34.42183,0 0,-8.296875 -46.28121,0 0,8.296875 q 5.60938,5.8125 15.29688,15.59375 9.70312,9.796875 12.1875,12.640625 4.73437,5.3125 6.60933,9 1.8907,3.6875 1.8907,7.25 0,5.8125 -4.07816,9.46875 -4.07812,3.671875 -10.625,3.671875 -4.64062,0 -9.79687,-1.609375 -5.14063,-1.609375 -11,-4.890625 l 0,9.96875 q 5.95312,2.390625 11.125,3.609375 5.1875,1.21875 9.48437,1.21875 11.32813,0 18.06246,-5.671875 6.7344,-5.65625 6.7344,-15.125 0,-4.5 -1.6875,-8.53125 -1.6719,-4.015625 -6.125,-9.484375 -1.2187,-1.421875 -7.76561,-8.1875 -6.53125,-6.765625 -18.45312,-18.921875 z"
           inkscape:connector-curvature="0"
           style="stroke-linecap:butt;stroke-linejoin:round" />
      </g>
    </g>
  </g>
  <g
     style="stroke-linecap:butt;stroke-linejoin:round"
     id="ytick_7-0"
     transform="translate(-405.36779,-250.41318)">
    <g
       style="stroke-linecap:butt;stroke-linejoin:round"
       id="line2d_41-2" />
    <g
       style="stroke-linecap:butt;stroke-linejoin:round"
       id="text_41-7">
      <!-- A:ASN:35 - A:GLU:46 -->
      <defs
         id="defs64755">
        <path
           style="stroke-linecap:butt;stroke-linejoin:round"
           inkscape:connector-curvature="0"
           d="m 9.8125,72.90625 13.28125,0 32.328125,-60.984375 0,60.984375 9.5625,0 0,-72.90625 -13.28125,0 -32.3125,60.984375 L 19.390625,0 9.8125,0 Z"
           id="DejaVuSans-4e-2" />
      </defs>
      <g
         style="fill:#262626;stroke-linecap:butt;stroke-linejoin:round"
         transform="matrix(0.05,0,0,-0.05,572.2,302.98844)"
         id="g64758">
        <path
           style="stroke-linecap:butt;stroke-linejoin:round"
           inkscape:connector-curvature="0"
           d="m 34.1875,63.1875 -13.390625,-36.28125 26.8125,0 z m -5.578125,9.71875 11.1875,0 L 67.578125,0 l -10.25,0 -6.640625,18.703125 -32.859375,0 L 11.1875,0 0.78125,0 Z"
           id="use64760" />
        <path
           style="stroke-linecap:butt;stroke-linejoin:round"
           inkscape:connector-curvature="0"
           d="m 80.111328,12.40625 10.296875,0 0,-12.40625 -10.296875,0 z m 0,39.296875 10.296875,0 0,-12.390625 -10.296875,0 z"
           id="use64762" />
        <path
           style="stroke-linecap:butt;stroke-linejoin:round"
           inkscape:connector-curvature="0"
           d="m 136.27148,63.1875 -13.39063,-36.28125 26.8125,0 z m -5.57813,9.71875 11.1875,0 L 169.6621,0 l -10.25,0 -6.64062,18.703125 -32.85938,0 L 113.27148,0 102.86523,0 Z"
           id="use64764" />
        <use
           height="100%"
           width="100%"
           y="0"
           style="stroke-linecap:butt;stroke-linejoin:round"
           x="170.49219"
           xlink:href="#DejaVuSans-53-4"
           id="use64766" />
        <use
           height="100%"
           width="100%"
           y="0"
           style="stroke-linecap:butt;stroke-linejoin:round"
           x="233.96875"
           xlink:href="#DejaVuSans-4e-2"
           id="use64768" />
        <path
           style="stroke-linecap:butt;stroke-linejoin:round"
           inkscape:connector-curvature="0"
           d="m 320.49219,12.40625 10.29687,0 0,-12.40625 -10.29687,0 z m 0,39.296875 10.29687,0 0,-12.390625 -10.29687,0 z"
           id="use64770" />
        <path
           id="use64772"
           d="m 383.04297,39.3125 q 7.07812,-1.515625 11.04687,-6.3125 3.98438,-4.78125 3.98438,-11.8125 0,-10.78125 -7.42188,-16.703125 -7.42187,-5.90625 -21.09375,-5.90625 -4.57812,0 -9.4375,0.90625 -4.85937,0.90625 -10.03125,2.71875 l 0,9.515625 q 4.09375,-2.390625 8.96875,-3.609375 4.89063,-1.21875 10.21875,-1.21875 9.26563,0 14.125,3.65625 4.85938,3.65625 4.85938,10.640625 0,6.453125 -4.51563,10.078125 -4.51562,3.640625 -12.5625,3.640625 l -8.5,0 0,8.109375 8.89063,0 q 7.26562,0 11.125,2.90625 3.85937,2.90625 3.85937,8.375 0,5.609375 -3.98437,8.609375 -3.96875,3.015625 -11.39063,3.015625 -4.0625,0 -8.70312,-0.890625 -4.64063,-0.875 -10.20313,-2.71875 l 0,8.78125 q 5.625,1.5625 10.53125,2.34375 4.90625,0.78125 9.25,0.78125 11.23438,0 17.76563,-5.109375 6.54687,-5.09375 6.54687,-13.78125 0,-6.0625 -3.46875,-10.234375 -3.46875,-4.171875 -9.85937,-5.78125 z"
           inkscape:connector-curvature="0"
           style="stroke-linecap:butt;stroke-linejoin:round" />
        <path
           id="use64774"
           d="m 416.88477,72.90625 38.71875,0 0,-8.3125 -29.6875,0 0,-17.859375 q 2.14062,0.734375 4.28125,1.09375 2.15625,0.359375 4.3125,0.359375 12.20312,0 19.32812,-6.6875 7.14063,-6.6875 7.14063,-18.109375 0,-11.765625 -7.32813,-18.296875 -7.32812,-6.515625 -20.65625,-6.515625 -4.59375,0 -9.35937,0.78125 -4.75,0.78125 -9.82813,2.34375 l 0,9.921875 q 4.39063,-2.390625 9.07813,-3.5625 4.6875,-1.171875 9.90625,-1.171875 8.45312,0 13.375,4.4375 4.9375,4.4375 4.9375,12.0625 0,7.609375 -4.9375,12.046875 -4.92188,4.453125 -13.375,4.453125 -3.95313,0 -7.89063,-0.875 -3.92187,-0.875 -8.01562,-2.734375 z"
           inkscape:connector-curvature="0"
           style="stroke-linecap:butt;stroke-linejoin:round" />
        <path
           style="stroke-linecap:butt;stroke-linejoin:round"
           inkscape:connector-curvature="0"
           d=""
           id="use64776" />
        <path
           id="use64778"
           d="m 506.38867,31.390625 26.3125,0 0,-8 -26.3125,0 z"
           inkscape:connector-curvature="0"
           style="stroke-linecap:butt;stroke-linejoin:round" />
        <path
           style="stroke-linecap:butt;stroke-linejoin:round"
           inkscape:connector-curvature="0"
           d=""
           id="use64780" />
        <path
           style="stroke-linecap:butt;stroke-linejoin:round"
           inkscape:connector-curvature="0"
           d="m 603.55664,63.1875 -13.39062,-36.28125 26.8125,0 z m -5.57812,9.71875 11.1875,0 L 636.94727,0 l -10.25,0 -6.64063,18.703125 -32.85937,0 L 580.55664,0 570.15039,0 Z"
           id="use64782" />
        <path
           style="stroke-linecap:butt;stroke-linejoin:round"
           inkscape:connector-curvature="0"
           d="m 649.48047,12.40625 10.29687,0 0,-12.40625 -10.29687,0 z m 0,39.296875 10.29687,0 0,-12.390625 -10.29687,0 z"
           id="use64784" />
        <path
           style="stroke-linecap:butt;stroke-linejoin:round"
           inkscape:connector-curvature="0"
           d="m 730.96875,10.40625 0,19.578125 -16.10938,0 0,8.109375 25.875,0 0,-31.3125 q -5.70312,-4.046875 -12.59375,-6.125 -6.875,-2.078125 -14.6875,-2.078125 -17.09375,0 -26.75,9.984375 -9.64062,10 -9.64062,27.8125 0,17.875 9.64062,27.859375 9.65625,9.984375 26.75,9.984375 7.125,0 13.54688,-1.765625 6.42187,-1.75 11.84375,-5.171875 l 0,-10.5 q -5.46875,4.640625 -11.625,6.984375 -6.15625,2.34375 -12.9375,2.34375 -13.39063,0 -20.10938,-7.46875 -6.70312,-7.46875 -6.70312,-22.265625 0,-14.75 6.70312,-22.21875 6.71875,-7.46875 20.10938,-7.46875 5.21875,0 9.3125,0.90625 4.10937,0.90625 7.375,2.8125 z"
           id="use64786" />
        <path
           style="stroke-linecap:butt;stroke-linejoin:round"
           inkscape:connector-curvature="0"
           d="m 758.75586,72.90625 9.85937,0 0,-64.609375 35.5,0 0,-8.296875 -45.35937,0 z"
           id="use64788" />
        <use
           height="100%"
           width="100%"
           y="0"
           style="stroke-linecap:butt;stroke-linejoin:round"
           x="804.57812"
           xlink:href="#DejaVuSans-55"
           id="use64790" />
        <path
           style="stroke-linecap:butt;stroke-linejoin:round"
           inkscape:connector-curvature="0"
           d="m 889.49023,12.40625 10.29688,0 0,-12.40625 -10.29688,0 z m 0,39.296875 10.29688,0 0,-12.390625 -10.29688,0 z"
           id="use64792" />
        <path
           id="use64794"
           d="m 949.25977,64.3125 -24.90625,-38.921875 24.90625,0 z m -2.59375,8.59375 12.40625,0 0,-47.515625 10.40625,0 0,-8.203125 -10.40625,0 0,-17.1875 -9.8125,0 0,17.1875 -32.90625,0 0,9.515625 z"
           inkscape:connector-curvature="0"
           style="stroke-linecap:butt;stroke-linejoin:round" />
        <path
           id="use64796"
           d="m 1008.1016,40.375 q -6.6407,0 -10.53129,-4.546875 -3.875,-4.53125 -3.875,-12.4375 0,-7.859375 3.875,-12.4375 3.89059,-4.5625 10.53129,-4.5625 6.6406,0 10.5156,4.5625 3.875,4.578125 3.875,12.4375 0,7.90625 -3.875,12.4375 -3.875,4.546875 -10.5156,4.546875 z m 19.5781,30.921875 0,-8.984375 q -3.7188,1.75 -7.5,2.671875 -3.7813,0.9375 -7.5,0.9375 -9.7656,0 -14.92189,-6.59375 -5.14062,-6.59375 -5.875,-19.921875 2.875,4.25 7.21875,6.515625 4.35934,2.265625 9.57814,2.265625 10.9844,0 17.3594,-6.671875 6.375,-6.65625 6.375,-18.125 0,-11.234375 -6.6407,-18.03125 -6.6406,-6.78125 -17.6718,-6.78125 -12.65629,0 -19.34379,9.6875 -6.6875,9.703125 -6.6875,28.109375 0,17.28125 8.20313,27.5625 8.20312,10.28125 22.01566,10.28125 3.7187,0 7.5,-0.734375 3.7812,-0.734375 7.8906,-2.1875 z"
           inkscape:connector-curvature="0"
           style="stroke-linecap:butt;stroke-linejoin:round" />
      </g>
    </g>
  </g>
  <g
     id="g97866"
     transform="translate(-405.57374,229.74537)"
     style="stroke-linecap:butt;stroke-linejoin:round">
    <path
       inkscape:connector-curvature="0"
       id="path97868"
       style="fill:#edf4fc;stroke-linecap:butt;stroke-linejoin:round"
       d="m 304.35076,266.43626 14.49162,0 0,9.90073 -14.49162,0 0,-9.90073"
       clip-path="url(#pf1b38f4682)"
       transform="translate(204.8,-480)" />
    <path
       inkscape:connector-curvature="0"
       id="path97870"
       style="fill:#d2e3f3;stroke-linecap:butt;stroke-linejoin:round"
       d="m 333.33401,266.43626 14.49162,0 0,9.90073 -14.49162,0 0,-9.90073"
       clip-path="url(#pf1b38f4682)"
       transform="translate(190.4,-480)" />
    <path
       inkscape:connector-curvature="0"
       id="path97872"
       style="fill:#aed1e7;stroke-linecap:butt;stroke-linejoin:round"
       d="m 347.82563,266.43626 14.49163,0 0,9.90073 -14.49163,0 0,-9.90073"
       clip-path="url(#pf1b38f4682)"
       transform="translate(190.4,-480)" />
    <path
       inkscape:connector-curvature="0"
       id="path97874"
       style="fill:#c8dcf0;stroke-linecap:butt;stroke-linejoin:round"
       d="m 376.80888,266.43626 14.49163,0 0,9.90073 -14.49163,0 0,-9.90073"
       clip-path="url(#pf1b38f4682)"
       transform="translate(176,-480)" />
    <path
       inkscape:connector-curvature="0"
       id="path97876"
       style="fill:#f1f7fd;stroke-linecap:butt;stroke-linejoin:round"
       d="m 304.35076,276.33699 14.49162,0 0,9.90074 -14.49162,0 0,-9.90074"
       clip-path="url(#pf1b38f4682)"
       transform="translate(204.8,-480)" />
    <path
       inkscape:connector-curvature="0"
       id="path97878"
       style="fill:#f6faff;stroke-linecap:butt;stroke-linejoin:round"
       d="m 333.33401,276.33699 14.49162,0 0,9.90074 -14.49162,0 0,-9.90074"
       clip-path="url(#pf1b38f4682)"
       transform="translate(190.4,-480)" />
    <path
       inkscape:connector-curvature="0"
       id="path97880"
       style="fill:#bdd7ec;stroke-linecap:butt;stroke-linejoin:round"
       d="m 347.82563,276.33699 14.49163,0 0,9.90074 -14.49163,0 0,-9.90074"
       clip-path="url(#pf1b38f4682)"
       transform="translate(190.4,-480)" />
    <path
       inkscape:connector-curvature="0"
       id="path97882"
       style="fill:#caddf0;stroke-linecap:butt;stroke-linejoin:round"
       d="m 376.80888,276.33699 14.49163,0 0,9.90074 -14.49163,0 0,-9.90074"
       clip-path="url(#pf1b38f4682)"
       transform="translate(176,-480)" />
    <path
       inkscape:connector-curvature="0"
       id="path97884"
       style="fill:#08316d;stroke-linecap:butt;stroke-linejoin:round"
       d="m 304.35076,286.23773 14.49162,0 0,9.90074 -14.49162,0 0,-9.90074"
       clip-path="url(#pf1b38f4682)"
       transform="translate(204.8,-480)" />
    <path
       inkscape:connector-curvature="0"
       id="path97886"
       style="fill:#3c8cc3;stroke-linecap:butt;stroke-linejoin:round"
       d="m 333.33401,286.23773 14.49162,0 0,9.90074 -14.49162,0 0,-9.90074"
       clip-path="url(#pf1b38f4682)"
       transform="translate(190.4,-480)" />
    <path
       inkscape:connector-curvature="0"
       id="path97888"
       style="fill:#2d7dbb;stroke-linecap:butt;stroke-linejoin:round"
       d="m 347.82563,286.23773 14.49163,0 0,9.90074 -14.49163,0 0,-9.90074"
       clip-path="url(#pf1b38f4682)"
       transform="translate(190.4,-480)" />
    <path
       inkscape:connector-curvature="0"
       id="path97890"
       style="fill:#77b5d9;stroke-linecap:butt;stroke-linejoin:round"
       d="m 376.80888,286.23773 14.49163,0 0,9.90074 -14.49163,0 0,-9.90074"
       clip-path="url(#pf1b38f4682)"
       transform="translate(176,-480)" />
    <path
       inkscape:connector-curvature="0"
       id="path97892"
       style="fill:#08306b;stroke-linecap:butt;stroke-linejoin:round"
       d="m 304.35076,296.13847 14.49162,0 0,9.90073 -14.49162,0 0,-9.90073"
       clip-path="url(#pf1b38f4682)"
       transform="translate(204.8,-480)" />
    <path
       inkscape:connector-curvature="0"
       id="path97894"
       style="fill:#4090c5;stroke-linecap:butt;stroke-linejoin:round"
       d="m 333.33401,296.13847 14.49162,0 0,9.90073 -14.49162,0 0,-9.90073"
       clip-path="url(#pf1b38f4682)"
       transform="translate(190.4,-480)" />
    <path
       inkscape:connector-curvature="0"
       id="path97896"
       style="fill:#2e7ebc;stroke-linecap:butt;stroke-linejoin:round"
       d="m 347.82563,296.13847 14.49163,0 0,9.90073 -14.49163,0 0,-9.90073"
       clip-path="url(#pf1b38f4682)"
       transform="translate(190.4,-480)" />
    <path
       inkscape:connector-curvature="0"
       id="path97898"
       style="fill:#85bcdc;stroke-linecap:butt;stroke-linejoin:round"
       d="m 376.80888,296.13847 14.49163,0 0,9.90073 -14.49163,0 0,-9.90073"
       clip-path="url(#pf1b38f4682)"
       transform="translate(176,-480)" />
  </g>
  <text
     xml:space="preserve"
     style="font-style:normal;font-weight:normal;font-size:7.01503801px;line-height:125%;font-family:sans-serif;letter-spacing:0px;word-spacing:0px;fill:#000000;fill-opacity:1;stroke:none;stroke-width:1px;stroke-linecap:butt;stroke-linejoin:miter;stroke-opacity:1"
     x="122.17884"
     y="10.329785"
     id="text101650"
     sodipodi:linespacing="125%"><tspan
       sodipodi:role="line"
       id="tspan101652"
       style="stroke-linecap:butt;stroke-linejoin:round"
       x="122.17884"
       y="10.329785">Without residue labels</tspan></text>
  <g
     style="stroke-linecap:butt;stroke-linejoin:round"
     id="ytick_4"
     transform="translate(-507.15076,-250.25463)">
    <g
       style="stroke-linecap:butt;stroke-linejoin:round"
       id="line2d_38" />
    <g
       style="stroke-linecap:butt;stroke-linejoin:round"
       id="text_38">
      <!-- E1 - L49 -->
      <defs
         id="defs3929">
        <path
           style="stroke-linecap:butt;stroke-linejoin:round"
           inkscape:connector-curvature="0"
           id="DejaVuSans-45"
           d="m 9.8125,72.90625 46.09375,0 0,-8.3125 -36.234375,0 0,-21.578125 34.71875,0 0,-8.296875 -34.71875,0 0,-26.421875 37.109375,0 L 56.78125,0 9.8125,0 Z" />
        <path
           style="stroke-linecap:butt;stroke-linejoin:round"
           inkscape:connector-curvature="0"
           id="DejaVuSans-4c"
           d="m 9.8125,72.90625 9.859375,0 0,-64.609375 35.5,0 L 55.171875,0 9.8125,0 Z" />
      </defs>
      <g
         id="g3933"
         transform="matrix(0.05,0,0,-0.05,572.2,273.28623)"
         style="fill:#262626;stroke-linecap:butt;stroke-linejoin:round">
        <use
           height="100%"
           width="100%"
           y="0"
           x="0"
           style="stroke-linecap:butt;stroke-linejoin:round"
           id="use3935"
           xlink:href="#DejaVuSans-45" />
        <path
           d="m 75.589844,8.296875 16.109375,0 0,55.625 -17.53125,-3.515625 0,8.984375 17.4375,3.515625 9.859371,0 0,-64.609375 16.10938,0 0,-8.296875 -41.984376,0 z"
           id="use3937"
           inkscape:connector-curvature="0"
           style="stroke-linecap:butt;stroke-linejoin:round" />
        <path
           id="use3939"
           d=""
           inkscape:connector-curvature="0"
           style="stroke-linecap:butt;stroke-linejoin:round" />
        <path
           d="m 163.48437,31.390625 26.3125,0 0,-8 -26.3125,0 z"
           id="use3941"
           inkscape:connector-curvature="0"
           style="stroke-linecap:butt;stroke-linejoin:round" />
        <path
           id="use3943"
           d=""
           inkscape:connector-curvature="0"
           style="stroke-linecap:butt;stroke-linejoin:round" />
        <use
           height="100%"
           width="100%"
           y="0"
           style="stroke-linecap:butt;stroke-linejoin:round"
           id="use3945"
           xlink:href="#DejaVuSans-4c"
           x="226.46484" />
        <path
           d="m 319.97461,64.3125 -24.90625,-38.921875 24.90625,0 z m -2.59375,8.59375 12.40625,0 0,-47.515625 10.40625,0 0,-8.203125 -10.40625,0 0,-17.1875 -9.8125,0 0,17.1875 -32.90625,0 0,9.515625 z"
           id="use3947"
           inkscape:connector-curvature="0"
           style="stroke-linecap:butt;stroke-linejoin:round" />
        <path
           d="m 356.78516,1.515625 0,8.984375 q 3.71875,-1.765625 7.51562,-2.6875 3.8125,-0.921875 7.48438,-0.921875 9.76562,0 14.90625,6.5625 5.15625,6.5625 5.89062,19.953125 -2.82812,-4.203125 -7.1875,-6.453125 -4.34375,-2.25 -9.60937,-2.25 -10.9375,0 -17.3125,6.609375 -6.375,6.625 -6.375,18.109375 0,11.21875 6.64062,18 6.64063,6.796875 17.67188,6.796875 12.65625,0 19.3125,-9.703125 6.67187,-9.6875 6.67187,-28.140625 0,-17.234375 -8.1875,-27.515625 -8.17187,-10.28125 -21.98437,-10.28125 -3.71875,0 -7.53125,0.734375 -3.79688,0.734375 -7.90625,2.203125 z m 19.625,30.90625 q 6.64062,0 10.51562,4.53125 3.89063,4.546875 3.89063,12.46875 0,7.859375 -3.89063,12.421875 -3.875,4.5625 -10.51562,4.5625 -6.64063,0 -10.51563,-4.5625 -3.875,-4.5625 -3.875,-12.421875 0,-7.921875 3.875,-12.46875 3.875,-4.53125 10.51563,-4.53125 z"
           id="use3949"
           inkscape:connector-curvature="0"
           style="stroke-linecap:butt;stroke-linejoin:round" />
      </g>
    </g>
  </g>
  <g
     style="stroke-linecap:butt;stroke-linejoin:round"
     id="ytick_5"
     transform="translate(-507.15076,-250.25463)">
    <g
       style="stroke-linecap:butt;stroke-linejoin:round"
       id="line2d_39" />
    <g
       style="stroke-linecap:butt;stroke-linejoin:round"
       id="text_39">
      <!-- A9 - D41 -->
      <defs
         id="defs3954">
        <path
           style="stroke-linecap:butt;stroke-linejoin:round"
           inkscape:connector-curvature="0"
           id="DejaVuSans-41"
           d="m 34.1875,63.1875 -13.390625,-36.28125 26.8125,0 z m -5.578125,9.71875 11.1875,0 L 67.578125,0 l -10.25,0 -6.640625,18.703125 -32.859375,0 L 11.1875,0 0.78125,0 Z" />
        <path
           style="stroke-linecap:butt;stroke-linejoin:round"
           inkscape:connector-curvature="0"
           id="DejaVuSans-44"
           d="m 19.671875,64.796875 0,-56.6875 11.921875,0 q 15.09375,0 22.09375,6.828125 7,6.84375 7,21.59375 0,14.640625 -7,21.453125 -7,6.8125 -22.09375,6.8125 z M 9.8125,72.90625 l 20.265625,0 q 21.1875,0 31.09375,-8.8125 9.921875,-8.8125 9.921875,-27.5625 0,-18.859375 -9.96875,-27.703125 Q 51.171875,0 30.078125,0 L 9.8125,0 Z" />
      </defs>
      <g
         id="g3958"
         transform="matrix(0.05,0,0,-0.05,572.2,283.18697)"
         style="fill:#262626;stroke-linecap:butt;stroke-linejoin:round">
        <use
           height="100%"
           width="100%"
           y="0"
           x="0"
           style="stroke-linecap:butt;stroke-linejoin:round"
           id="use3960"
           xlink:href="#DejaVuSans-41" />
        <path
           d="m 79.392578,1.515625 0,8.984375 q 3.71875,-1.765625 7.515625,-2.6875 3.8125,-0.921875 7.484375,-0.921875 9.765622,0 14.906252,6.5625 5.15625,6.5625 5.89062,19.953125 -2.82812,-4.203125 -7.1875,-6.453125 -4.34375,-2.25 -9.609372,-2.25 -10.9375,0 -17.3125,6.609375 -6.375,6.625 -6.375,18.109375 0,11.21875 6.640625,18 6.640625,6.796875 17.671875,6.796875 12.656252,0 19.312502,-9.703125 6.67187,-9.6875 6.67187,-28.140625 0,-17.234375 -8.1875,-27.515625 -8.17187,-10.28125 -21.984372,-10.28125 -3.71875,0 -7.53125,0.734375 -3.796875,0.734375 -7.90625,2.203125 z m 19.625,30.90625 q 6.640622,0 10.515622,4.53125 3.89063,4.546875 3.89063,12.46875 0,7.859375 -3.89063,12.421875 -3.875,4.5625 -10.515622,4.5625 -6.640625,0 -10.515625,-4.5625 -3.875,-4.5625 -3.875,-12.421875 0,-7.921875 3.875,-12.46875 3.875,-4.53125 10.515625,-4.53125 z"
           id="use3962"
           inkscape:connector-curvature="0"
           style="stroke-linecap:butt;stroke-linejoin:round" />
        <path
           id="use3964"
           d=""
           inkscape:connector-curvature="0"
           style="stroke-linecap:butt;stroke-linejoin:round" />
        <path
           d="m 168.70898,31.390625 26.3125,0 0,-8 -26.3125,0 z"
           id="use3966"
           inkscape:connector-curvature="0"
           style="stroke-linecap:butt;stroke-linejoin:round" />
        <path
           id="use3968"
           d=""
           inkscape:connector-curvature="0"
           style="stroke-linecap:butt;stroke-linejoin:round" />
        <use
           height="100%"
           width="100%"
           y="0"
           style="stroke-linecap:butt;stroke-linejoin:round"
           id="use3970"
           xlink:href="#DejaVuSans-44"
           x="231.68945" />
        <path
           d="m 346.48828,64.3125 -24.90625,-38.921875 24.90625,0 z m -2.59375,8.59375 12.40625,0 0,-47.515625 10.40625,0 0,-8.203125 -10.40625,0 0,-17.1875 -9.8125,0 0,17.1875 -32.90625,0 0,9.515625 z"
           id="use3972"
           inkscape:connector-curvature="0"
           style="stroke-linecap:butt;stroke-linejoin:round" />
        <path
           d="m 384.7207,8.296875 16.10938,0 0,55.625 -17.53125,-3.515625 0,8.984375 17.4375,3.515625 9.85937,0 0,-64.609375 16.10938,0 0,-8.296875 -41.98438,0 z"
           id="use3974"
           inkscape:connector-curvature="0"
           style="stroke-linecap:butt;stroke-linejoin:round" />
      </g>
    </g>
  </g>
  <g
     style="stroke-linecap:butt;stroke-linejoin:round"
     id="ytick_6"
     transform="translate(-507.15076,-250.25463)">
    <g
       style="stroke-linecap:butt;stroke-linejoin:round"
       id="line2d_40" />
    <g
       style="stroke-linecap:butt;stroke-linejoin:round"
       id="text_40">
      <!-- D39 - T42 -->
      <defs
         id="defs3979">
        <path
           style="stroke-linecap:butt;stroke-linejoin:round"
           inkscape:connector-curvature="0"
           id="DejaVuSans-54"
           d="m -0.296875,72.90625 61.671875,0 0,-8.3125 -25.875,0 L 35.5,0 l -9.90625,0 0,64.59375 -25.890625,0 z" />
      </defs>
      <g
         id="g3982"
         transform="matrix(0.05,0,0,-0.05,572.2,293.08771)"
         style="fill:#262626;stroke-linecap:butt;stroke-linejoin:round">
        <use
           height="100%"
           width="100%"
           y="0"
           x="0"
           style="stroke-linecap:butt;stroke-linejoin:round"
           id="use3984"
           xlink:href="#DejaVuSans-44" />
        <path
           d="M 117.58008,39.3125 Q 124.6582,37.796875 128.62695,33 q 3.98438,-4.78125 3.98438,-11.8125 0,-10.78125 -7.42188,-16.703125 -7.42187,-5.90625 -21.09375,-5.90625 -4.578122,0 -9.437497,0.90625 -4.859375,0.90625 -10.03125,2.71875 l 0,9.515625 q 4.09375,-2.390625 8.96875,-3.609375 4.890625,-1.21875 10.218747,-1.21875 9.26563,0 14.125,3.65625 4.85938,3.65625 4.85938,10.640625 0,6.453125 -4.51563,10.078125 -4.51562,3.640625 -12.5625,3.640625 l -8.499997,0 0,8.109375 8.890627,0 q 7.26562,0 11.125,2.90625 3.85937,2.90625 3.85937,8.375 0,5.609375 -3.98437,8.609375 -3.96875,3.015625 -11.39063,3.015625 -4.0625,0 -8.703122,-0.890625 -4.640625,-0.875 -10.203125,-2.71875 l 0,8.78125 q 5.625,1.5625 10.53125,2.34375 4.906247,0.78125 9.249997,0.78125 11.23438,0 17.76563,-5.109375 6.54687,-5.09375 6.54687,-13.78125 0,-6.0625 -3.46875,-10.234375 -3.46875,-4.171875 -9.85937,-5.78125 z"
           id="use3986"
           inkscape:connector-curvature="0"
           style="stroke-linecap:butt;stroke-linejoin:round" />
        <path
           d="m 151.60937,1.515625 0,8.984375 q 3.71875,-1.765625 7.51563,-2.6875 3.8125,-0.921875 7.48437,-0.921875 9.76563,0 14.90625,6.5625 5.15625,6.5625 5.89063,19.953125 -2.82813,-4.203125 -7.1875,-6.453125 -4.34375,-2.25 -9.60938,-2.25 -10.9375,0 -17.3125,6.609375 -6.375,6.625 -6.375,18.109375 0,11.21875 6.64063,18 6.64062,6.796875 17.67187,6.796875 12.65625,0 19.3125,-9.703125 6.67188,-9.6875 6.67188,-28.140625 0,-17.234375 -8.1875,-27.515625 -8.17188,-10.28125 -21.98438,-10.28125 -3.71875,0 -7.53125,0.734375 -3.79687,0.734375 -7.90625,2.203125 z m 19.625,30.90625 q 6.64063,0 10.51563,4.53125 3.89062,4.546875 3.89062,12.46875 0,7.859375 -3.89062,12.421875 -3.875,4.5625 -10.51563,4.5625 -6.64062,0 -10.51562,-4.5625 -3.875,-4.5625 -3.875,-12.421875 0,-7.921875 3.875,-12.46875 3.875,-4.53125 10.51562,-4.53125 z"
           id="use3988"
           inkscape:connector-curvature="0"
           style="stroke-linecap:butt;stroke-linejoin:round" />
        <path
           id="use3990"
           d=""
           inkscape:connector-curvature="0"
           style="stroke-linecap:butt;stroke-linejoin:round" />
        <path
           d="m 240.92578,31.390625 26.3125,0 0,-8 -26.3125,0 z"
           id="use3992"
           inkscape:connector-curvature="0"
           style="stroke-linecap:butt;stroke-linejoin:round" />
        <path
           id="use3994"
           d=""
           inkscape:connector-curvature="0"
           style="stroke-linecap:butt;stroke-linejoin:round" />
        <use
           height="100%"
           width="100%"
           y="0"
           style="stroke-linecap:butt;stroke-linejoin:round"
           id="use3996"
           xlink:href="#DejaVuSans-54"
           x="303.90625" />
        <path
           d="m 402.78711,64.3125 -24.90625,-38.921875 24.90625,0 z m -2.59375,8.59375 12.40625,0 0,-47.515625 10.40625,0 0,-8.203125 -10.40625,0 0,-17.1875 -9.8125,0 0,17.1875 -32.90625,0 0,9.515625 z"
           id="use3998"
           inkscape:connector-curvature="0"
           style="stroke-linecap:butt;stroke-linejoin:round" />
        <path
           d="m 447.80078,8.296875 34.42188,0 0,-8.296875 -46.28125,0 0,8.296875 q 5.60937,5.8125 15.29687,15.59375 9.70313,9.796875 12.1875,12.640625 4.73438,5.3125 6.60938,9 1.89062,3.6875 1.89062,7.25 0,5.8125 -4.07812,9.46875 -4.07813,3.671875 -10.625,3.671875 -4.64063,0 -9.79688,-1.609375 -5.14062,-1.609375 -11,-4.890625 l 0,9.96875 q 5.95313,2.390625 11.125,3.609375 5.1875,1.21875 9.48438,1.21875 11.32812,0 18.0625,-5.671875 6.73437,-5.65625 6.73437,-15.125 0,-4.5 -1.6875,-8.53125 -1.67187,-4.015625 -6.125,-9.484375 -1.21875,-1.421875 -7.76562,-8.1875 -6.53125,-6.765625 -18.45313,-18.921875 z"
           id="use4000"
           inkscape:connector-curvature="0"
           style="stroke-linecap:butt;stroke-linejoin:round" />
      </g>
    </g>
  </g>
  <g
     style="stroke-linecap:butt;stroke-linejoin:round"
     id="g97848"
     transform="translate(-507.15076,229.74537)">
    <path
       transform="translate(204.8,-480)"
       clip-path="url(#pf1b38f4682)"
       d="m 304.35076,266.43626 14.49162,0 0,9.90073 -14.49162,0 0,-9.90073"
       style="fill:#edf4fc;stroke-linecap:butt;stroke-linejoin:round"
       id="path6112"
       inkscape:connector-curvature="0" />
    <path
       transform="translate(190.4,-480)"
       clip-path="url(#pf1b38f4682)"
       d="m 333.33401,266.43626 14.49162,0 0,9.90073 -14.49162,0 0,-9.90073"
       style="fill:#d2e3f3;stroke-linecap:butt;stroke-linejoin:round"
       id="path6116"
       inkscape:connector-curvature="0" />
    <path
       transform="translate(190.4,-480)"
       clip-path="url(#pf1b38f4682)"
       d="m 347.82563,266.43626 14.49163,0 0,9.90073 -14.49163,0 0,-9.90073"
       style="fill:#aed1e7;stroke-linecap:butt;stroke-linejoin:round"
       id="path6118"
       inkscape:connector-curvature="0" />
    <path
       transform="translate(176,-480)"
       clip-path="url(#pf1b38f4682)"
       d="m 376.80888,266.43626 14.49163,0 0,9.90073 -14.49163,0 0,-9.90073"
       style="fill:#c8dcf0;stroke-linecap:butt;stroke-linejoin:round"
       id="path6122"
       inkscape:connector-curvature="0" />
    <path
       transform="translate(204.8,-480)"
       clip-path="url(#pf1b38f4682)"
       d="m 304.35076,276.33699 14.49162,0 0,9.90074 -14.49162,0 0,-9.90074"
       style="fill:#f1f7fd;stroke-linecap:butt;stroke-linejoin:round"
       id="path6180"
       inkscape:connector-curvature="0" />
    <path
       transform="translate(190.4,-480)"
       clip-path="url(#pf1b38f4682)"
       d="m 333.33401,276.33699 14.49162,0 0,9.90074 -14.49162,0 0,-9.90074"
       style="fill:#f6faff;stroke-linecap:butt;stroke-linejoin:round"
       id="path6184"
       inkscape:connector-curvature="0" />
    <path
       transform="translate(190.4,-480)"
       clip-path="url(#pf1b38f4682)"
       d="m 347.82563,276.33699 14.49163,0 0,9.90074 -14.49163,0 0,-9.90074"
       style="fill:#bdd7ec;stroke-linecap:butt;stroke-linejoin:round"
       id="path6186"
       inkscape:connector-curvature="0" />
    <path
       transform="translate(176,-480)"
       clip-path="url(#pf1b38f4682)"
       d="m 376.80888,276.33699 14.49163,0 0,9.90074 -14.49163,0 0,-9.90074"
       style="fill:#caddf0;stroke-linecap:butt;stroke-linejoin:round"
       id="path6190"
       inkscape:connector-curvature="0" />
    <path
       transform="translate(204.8,-480)"
       clip-path="url(#pf1b38f4682)"
       d="m 304.35076,286.23773 14.49162,0 0,9.90074 -14.49162,0 0,-9.90074"
       style="fill:#08316d;stroke-linecap:butt;stroke-linejoin:round"
       id="path6248"
       inkscape:connector-curvature="0" />
    <path
       transform="translate(190.4,-480)"
       clip-path="url(#pf1b38f4682)"
       d="m 333.33401,286.23773 14.49162,0 0,9.90074 -14.49162,0 0,-9.90074"
       style="fill:#3c8cc3;stroke-linecap:butt;stroke-linejoin:round"
       id="path6252"
       inkscape:connector-curvature="0" />
    <path
       transform="translate(190.4,-480)"
       clip-path="url(#pf1b38f4682)"
       d="m 347.82563,286.23773 14.49163,0 0,9.90074 -14.49163,0 0,-9.90074"
       style="fill:#2d7dbb;stroke-linecap:butt;stroke-linejoin:round"
       id="path6254"
       inkscape:connector-curvature="0" />
    <path
       transform="translate(176,-480)"
       clip-path="url(#pf1b38f4682)"
       d="m 376.80888,286.23773 14.49163,0 0,9.90074 -14.49163,0 0,-9.90074"
       style="fill:#77b5d9;stroke-linecap:butt;stroke-linejoin:round"
       id="path6258"
       inkscape:connector-curvature="0" />
    <path
       transform="translate(204.8,-480)"
       clip-path="url(#pf1b38f4682)"
       d="m 304.35076,296.13847 14.49162,0 0,9.90073 -14.49162,0 0,-9.90073"
       style="fill:#08306b;stroke-linecap:butt;stroke-linejoin:round"
       id="path6316"
       inkscape:connector-curvature="0" />
    <path
       transform="translate(190.4,-480)"
       clip-path="url(#pf1b38f4682)"
       d="m 333.33401,296.13847 14.49162,0 0,9.90073 -14.49162,0 0,-9.90073"
       style="fill:#4090c5;stroke-linecap:butt;stroke-linejoin:round"
       id="path6320"
       inkscape:connector-curvature="0" />
    <path
       transform="translate(190.4,-480)"
       clip-path="url(#pf1b38f4682)"
       d="m 347.82563,296.13847 14.49163,0 0,9.90073 -14.49163,0 0,-9.90073"
       style="fill:#2e7ebc;stroke-linecap:butt;stroke-linejoin:round"
       id="path6322"
       inkscape:connector-curvature="0" />
    <path
       transform="translate(176,-480)"
       clip-path="url(#pf1b38f4682)"
       d="m 376.80888,296.13847 14.49163,0 0,9.90073 -14.49163,0 0,-9.90073"
       style="fill:#85bcdc;stroke-linecap:butt;stroke-linejoin:round"
       id="path6326"
       inkscape:connector-curvature="0" />
  </g>
  <path
     id="path4365"
     d=""
     inkscape:connector-curvature="0"
     style="fill:#262626;stroke-linecap:butt;stroke-linejoin:round" />
  <path
     id="path4369"
     d=""
     inkscape:connector-curvature="0"
     style="fill:#262626;stroke-linecap:butt;stroke-linejoin:round" />
  <text
     sodipodi:linespacing="125%"
     id="text101654"
     y="10.329782"
     x="14.605557"
     style="font-style:normal;font-weight:normal;font-size:7.01503801px;line-height:125%;font-family:sans-serif;letter-spacing:0px;word-spacing:0px;fill:#000000;fill-opacity:1;stroke:none;stroke-width:1px;stroke-linecap:butt;stroke-linejoin:miter;stroke-opacity:1"
     xml:space="preserve"><tspan
       y="10.329782"
       x="14.605557"
       style="stroke-linecap:butt;stroke-linejoin:round"
       id="tspan101656"
       sodipodi:role="line">With residue labels</tspan></text>
  <path
     style="fill:#262626;stroke-linecap:butt;stroke-linejoin:round"
     inkscape:connector-curvature="0"
     d=""
     id="path4778" />
  <path
     style="fill:#262626;stroke-linecap:butt;stroke-linejoin:round"
     inkscape:connector-curvature="0"
     d=""
     id="path4782" />
  <g
     id="g4968"
     transform="translate(-19.2,-13.000005)"
     style="stroke-linecap:butt;stroke-linejoin:round">
    <use
       transform="matrix(0.05,0,0,-0.05,72.090486,65.57526)"
       id="use4770"
       xlink:href="#DejaVuSans-4e-2"
       x="233.96875"
       style="fill:#262626;stroke-linecap:butt;stroke-linejoin:round"
       y="0"
       width="100%"
       height="100%" />
    <path
       style="fill:#262626;stroke-linecap:butt;stroke-linejoin:round"
       inkscape:connector-curvature="0"
       d="m 89.984359,63.609635 q 0.353906,0.07578 0.552343,0.315625 0.199219,0.239062 0.199219,0.590625 0,0.539062 -0.371094,0.835156 -0.371093,0.295313 -1.054687,0.295313 -0.228906,0 -0.471875,-0.04531 -0.242969,-0.04531 -0.501563,-0.135937 l 0,-0.475782 q 0.204688,0.119532 0.448438,0.180469 0.244531,0.06094 0.510937,0.06094 0.463282,0 0.70625,-0.182813 0.242969,-0.182812 0.242969,-0.532031 0,-0.322656 -0.225781,-0.503906 -0.225781,-0.182031 -0.628125,-0.182031 l -0.425,0 0,-0.405469 0.444531,0 q 0.363281,0 0.55625,-0.145313 0.192969,-0.145312 0.192969,-0.41875 0,-0.280468 -0.199219,-0.430469 -0.198437,-0.150781 -0.569531,-0.150781 -0.203125,0 -0.435156,0.04453 -0.232032,0.04375 -0.510157,0.135937 l 0,-0.439063 q 0.28125,-0.07813 0.526563,-0.117187 0.245312,-0.03906 0.4625,-0.03906 0.561719,0 0.888281,0.255469 0.327344,0.254688 0.327344,0.689063 0,0.303125 -0.173438,0.511718 -0.173437,0.208594 -0.492968,0.289063 z"
       id="path4774" />
    <path
       style="fill:#262626;stroke-linecap:butt;stroke-linejoin:round"
       inkscape:connector-curvature="0"
       d="m 91.676449,61.929947 1.935937,0 0,0.415626 -1.484375,0 0,0.892968 q 0.107031,-0.03672 0.214062,-0.05469 0.107813,-0.01797 0.215625,-0.01797 0.610157,0 0.966407,0.334375 0.357031,0.334375 0.357031,0.905469 0,0.588281 -0.366406,0.914843 -0.366406,0.325782 -1.032813,0.325782 -0.229688,0 -0.467969,-0.03906 -0.2375,-0.03906 -0.491406,-0.117187 l 0,-0.496094 q 0.219532,0.119531 0.453907,0.178125 0.234375,0.05859 0.495312,0.05859 0.422656,0 0.66875,-0.221875 0.246875,-0.221875 0.246875,-0.603125 0,-0.380469 -0.246875,-0.602344 -0.246094,-0.222656 -0.66875,-0.222656 -0.197656,0 -0.394531,0.04375 -0.196094,0.04375 -0.400781,0.136719 z"
       id="path4776" />
    <path
       style="fill:#262626;stroke-linecap:butt;stroke-linejoin:round"
       inkscape:connector-curvature="0"
       d="m 96.151644,64.005729 1.315625,0 0,0.4 -1.315625,0 z"
       id="path4780" />
    <path
       style="fill:#262626;stroke-linecap:butt;stroke-linejoin:round"
       inkscape:connector-curvature="0"
       d="m 105.15966,62.359635 -1.24531,1.946094 1.24531,0 z m -0.12969,-0.429688 0.62031,0 0,2.375782 0.52032,0 0,0.410156 -0.52032,0 0,0.859375 -0.49062,0 0,-0.859375 -1.64531,0 0,-0.475781 z"
       id="path4796" />
    <path
       style="fill:#262626;stroke-linecap:butt;stroke-linejoin:round"
       inkscape:connector-curvature="0"
       d="m 108.10175,63.55651 q -0.33203,0 -0.52656,0.227344 -0.19375,0.226562 -0.19375,0.621875 0,0.392969 0.19375,0.621875 0.19453,0.228125 0.52656,0.228125 0.33203,0 0.52578,-0.228125 0.19375,-0.228906 0.19375,-0.621875 0,-0.395313 -0.19375,-0.621875 -0.19375,-0.227344 -0.52578,-0.227344 z m 0.97891,-1.546094 0,0.449219 q -0.18594,-0.0875 -0.375,-0.133594 -0.18907,-0.04687 -0.375,-0.04687 -0.48829,0 -0.7461,0.329688 -0.25703,0.329687 -0.29375,0.996094 0.14375,-0.2125 0.36094,-0.325782 0.21797,-0.113281 0.47891,-0.113281 0.54922,0 0.86796,0.333594 0.31876,0.332812 0.31876,0.90625 0,0.561719 -0.33204,0.901562 -0.33203,0.339063 -0.88359,0.339063 -0.63281,0 -0.96719,-0.484375 -0.33437,-0.485157 -0.33437,-1.405469 0,-0.864062 0.41015,-1.378125 0.41016,-0.514063 1.10079,-0.514063 0.18593,0 0.375,0.03672 0.18906,0.03672 0.39453,0.109375 z"
       id="path4798" />
    <use
       transform="matrix(0.05,0,0,-0.05,100.00377,65.57526)"
       xlink:href="#DejaVuSans-45"
       id="use4918"
       style="fill:#262626;stroke-linecap:butt;stroke-linejoin:round"
       x="0"
       y="0"
       width="100%"
       height="100%" />
  </g>
  <path
     id="path4922"
     d=""
     inkscape:connector-curvature="0"
     style="fill:#262626;stroke-linecap:butt;stroke-linejoin:round" />
  <path
     id="path4926"
     d=""
     inkscape:connector-curvature="0"
     style="fill:#262626;stroke-linecap:butt;stroke-linejoin:round" />
</svg>
