<svg width="750" height="100"><rect class="cluster" x="15" y="20" width="13.5288" height="25" fill="#1f77b4"></rect><rect class="cluster" x="28.532400000000003" y="20" width="21.949199999999998" height="25" fill="#ff7f0e"></rect><rect class="cluster" x="50.485200000000006" y="20" width="4.244399999999992" height="25" fill="#2ca02c"></rect><rect class="cluster" x="54.7332" y="20" width="33.46560000000001" height="25" fill="#d62728"></rect><rect class="cluster" x="88.20239999999998" y="20" width="2.134800000000027" height="25" fill="#1f77b4"></rect><rect class="cluster" x="90.3408" y="20" width="21.7872" height="25" fill="#9467bd"></rect><rect class="cluster" x="112.13159999999999" y="20" width="60.008399999999995" height="25" fill="#1f77b4"></rect><rect class="cluster" x="172.14360000000002" y="20" width="22.852799999999974" height="25" fill="#9467bd"></rect><rect class="cluster" x="195" y="20" width="46.7208" height="25" fill="#2ca02c"></rect><rect class="cluster" x="241.7244" y="20" width="25.596000000000004" height="25" fill="#d62728"></rect><rect class="cluster" x="267.32399999999996" y="20" width="98.58240000000006" height="25" fill="#8c564b"></rect><rect class="cluster" x="365.90999999999997" y="20" width="9.086400000000026" height="25" fill="#e377c2"></rect><rect class="cluster" x="375" y="20" width="6.16680000000008" height="25" fill="#7f7f7f"></rect><rect class="cluster" x="381.1704" y="20" width="30.45240000000007" height="25" fill="#bcbd22"></rect><rect class="cluster" x="411.62639999999993" y="20" width="25.012800000000027" height="25" fill="#d62728"></rect><rect class="cluster" x="436.6428" y="20" width="23.72399999999999" height="25" fill="#7f7f7f"></rect><rect class="cluster" x="460.37039999999996" y="20" width="10.760400000000061" height="25" fill="#e377c2"></rect><rect class="cluster" x="471.1344" y="20" width="48.85559999999998" height="25" fill="#7f7f7f"></rect><rect class="cluster" x="519.9936" y="20" width="8.157600000000002" height="25" fill="#e377c2"></rect><rect class="cluster" x="528.1547999999999" y="20" width="34.07040000000006" height="25" fill="#8c564b"></rect><rect class="cluster" x="562.2288" y="20" width="7.041600000000017" height="25" fill="#17becf"></rect><rect class="cluster" x="569.274" y="20" width="58.06079999999997" height="25" fill="#1f77b4"></rect><rect class="cluster" x="627.3383999999999" y="20" width="11.959200000000124" height="25" fill="#e377c2"></rect><rect class="cluster" x="639.3012" y="20" width="23.140800000000013" height="25" fill="#9467bd"></rect><rect class="cluster" x="662.4456" y="20" width="24.703200000000038" height="25" fill="#1f77b4"></rect><rect class="cluster" x="687.1524" y="20" width="5.5620000000001255" height="25" fill="#bcbd22"></rect><rect class="cluster" x="692.718" y="20" width="5.270399999999995" height="25" fill="#1f77b4"></rect><rect class="cluster" x="697.992" y="20" width="4.337999999999965" height="25" fill="#e377c2"></rect><rect class="cluster" x="702.3336" y="20" width="21.268799999999942" height="25" fill="#9467bd"></rect><rect class="cluster" x="723.6060000000001" y="20" width="11.393999999999892" height="25" fill="#8c564b"></rect><g transform="translate(15, 50) rotate(90)"><text stroke="none">0</text></g><g transform="translate(28.532400000000003, 50) rotate(90)"><text stroke="none">3759</text></g><g transform="translate(50.485200000000006, 50) rotate(90)"><text stroke="none">9857</text></g><g transform="translate(54.7332, 50) rotate(90)"><text stroke="none">11037</text></g><g transform="translate(88.20239999999998, 50) rotate(90)"><text stroke="none">20334</text></g><g transform="translate(90.3408, 50) rotate(90)"><text stroke="none">20928</text></g><g transform="translate(112.13159999999999, 50) rotate(90)"><text stroke="none">26981</text></g><g transform="translate(172.14360000000002, 50) rotate(90)"><text stroke="none">43651</text></g><g transform="translate(195, 50) rotate(90)"><text stroke="none">50000</text></g><g transform="translate(241.7244, 50) rotate(90)"><text stroke="none">62979</text></g><g transform="translate(267.32399999999996, 50) rotate(90)"><text stroke="none">70090</text></g><g transform="translate(365.90999999999997, 50) rotate(90)"><text stroke="none">97475</text></g><g transform="translate(375, 50) rotate(90)"><text stroke="none">100000</text></g><g transform="translate(381.1704, 50) rotate(90)"><text stroke="none">101714</text></g><g transform="translate(411.62639999999993, 50) rotate(90)"><text stroke="none">110174</text></g><g transform="translate(436.6428, 50) rotate(90)"><text stroke="none">117123</text></g><g transform="translate(460.37039999999996, 50) rotate(90)"><text stroke="none">123714</text></g><g transform="translate(471.1344, 50) rotate(90)"><text stroke="none">126704</text></g><g transform="translate(519.9936, 50) rotate(90)"><text stroke="none">140276</text></g><g transform="translate(528.1547999999999, 50) rotate(90)"><text stroke="none">142543</text></g><g transform="translate(562.2288, 50) rotate(90)"><text stroke="none">152008</text></g><g transform="translate(569.274, 50) rotate(90)"><text stroke="none">153965</text></g><g transform="translate(627.3383999999999, 50) rotate(90)"><text stroke="none">170094</text></g><g transform="translate(639.3012, 50) rotate(90)"><text stroke="none">173417</text></g><g transform="translate(662.4456, 50) rotate(90)"><text stroke="none">179846</text></g><g transform="translate(687.1524, 50) rotate(90)"><text stroke="none">186709</text></g><g transform="translate(692.718, 50) rotate(90)"><text stroke="none">188255</text></g><g transform="translate(697.992, 50) rotate(90)"><text stroke="none">189720</text></g><g transform="translate(702.3336, 50) rotate(90)"><text stroke="none">190926</text></g><g transform="translate(723.6060000000001, 50) rotate(90)"><text stroke="none">196835</text></g></svg>
